<svg width="118" height="118" viewBox="0 0 118 118" fill="none" xmlns="http://www.w3.org/2000/svg">
<circle cx="59" cy="59" r="53" fill="#BA9558" stroke="#F0EBDF" stroke-width="12"/>
<path d="M43.1445 40.0273V59H38.4102V48.8281C38.4102 47.3594 38.375 46.4766 38.3047 46.1797C38.2344 45.8828 38.0391 45.6602 37.7188 45.5117C37.4062 45.3555 36.7031 45.2773 35.6094 45.2773H35.1406V43.0625C37.4297 42.5703 39.168 41.5586 40.3555 40.0273H43.1445ZM56.1523 46.4492V52.7773C56.1523 54.2148 56.0742 55.2617 55.918 55.918C55.7617 56.5742 55.4375 57.1875 54.9453 57.7578C54.4531 58.3281 53.8594 58.7383 53.1641 58.9883C52.4688 59.2383 51.6914 59.3633 50.832 59.3633C49.6992 59.3633 48.7578 59.2344 48.0078 58.9766C47.2578 58.7109 46.6602 58.3008 46.2148 57.7461C45.7695 57.1914 45.4531 56.6094 45.2656 56C45.0781 55.3828 44.9844 54.4062 44.9844 53.0703V46.4492C44.9844 44.707 45.1328 43.4023 45.4297 42.5352C45.7344 41.668 46.332 40.9727 47.2227 40.4492C48.1211 39.9258 49.207 39.6641 50.4805 39.6641C51.5195 39.6641 52.4492 39.8477 53.2695 40.2148C54.0898 40.5742 54.7031 41.0156 55.1094 41.5391C55.5156 42.0625 55.7891 42.6523 55.9297 43.3086C56.0781 43.9648 56.1523 45.0117 56.1523 46.4492ZM51.418 44.8555C51.418 43.8477 51.3672 43.2188 51.2656 42.9688C51.1719 42.7109 50.9453 42.582 50.5859 42.582C50.2344 42.582 50 42.7188 49.8828 42.9922C49.7734 43.2578 49.7188 43.8789 49.7188 44.8555V54.1133C49.7188 55.2148 49.7695 55.8789 49.8711 56.1055C49.9805 56.332 50.2109 56.4453 50.5625 56.4453C50.9141 56.4453 51.1445 56.3125 51.2539 56.0469C51.3633 55.7812 51.418 55.1836 51.418 54.2539V44.8555ZM69.0195 46.4492V52.7773C69.0195 54.2148 68.9414 55.2617 68.7852 55.918C68.6289 56.5742 68.3047 57.1875 67.8125 57.7578C67.3203 58.3281 66.7266 58.7383 66.0312 58.9883C65.3359 59.2383 64.5586 59.3633 63.6992 59.3633C62.5664 59.3633 61.625 59.2344 60.875 58.9766C60.125 58.7109 59.5273 58.3008 59.082 57.7461C58.6367 57.1914 58.3203 56.6094 58.1328 56C57.9453 55.3828 57.8516 54.4062 57.8516 53.0703V46.4492C57.8516 44.707 58 43.4023 58.2969 42.5352C58.6016 41.668 59.1992 40.9727 60.0898 40.4492C60.9883 39.9258 62.0742 39.6641 63.3477 39.6641C64.3867 39.6641 65.3164 39.8477 66.1367 40.2148C66.957 40.5742 67.5703 41.0156 67.9766 41.5391C68.3828 42.0625 68.6562 42.6523 68.7969 43.3086C68.9453 43.9648 69.0195 45.0117 69.0195 46.4492ZM64.2852 44.8555C64.2852 43.8477 64.2344 43.2188 64.1328 42.9688C64.0391 42.7109 63.8125 42.582 63.4531 42.582C63.1016 42.582 62.8672 42.7188 62.75 42.9922C62.6406 43.2578 62.5859 43.8789 62.5859 44.8555V54.1133C62.5859 55.2148 62.6367 55.8789 62.7383 56.1055C62.8477 56.332 63.0781 56.4453 63.4297 56.4453C63.7812 56.4453 64.0117 56.3125 64.1211 56.0469C64.2305 55.7812 64.2852 55.1836 64.2852 54.2539V44.8555ZM81.8867 46.4492V52.7773C81.8867 54.2148 81.8086 55.2617 81.6523 55.918C81.4961 56.5742 81.1719 57.1875 80.6797 57.7578C80.1875 58.3281 79.5938 58.7383 78.8984 58.9883C78.2031 59.2383 77.4258 59.3633 76.5664 59.3633C75.4336 59.3633 74.4922 59.2344 73.7422 58.9766C72.9922 58.7109 72.3945 58.3008 71.9492 57.7461C71.5039 57.1914 71.1875 56.6094 71 56C70.8125 55.3828 70.7188 54.4062 70.7188 53.0703V46.4492C70.7188 44.707 70.8672 43.4023 71.1641 42.5352C71.4688 41.668 72.0664 40.9727 72.957 40.4492C73.8555 39.9258 74.9414 39.6641 76.2148 39.6641C77.2539 39.6641 78.1836 39.8477 79.0039 40.2148C79.8242 40.5742 80.4375 41.0156 80.8438 41.5391C81.25 42.0625 81.5234 42.6523 81.6641 43.3086C81.8125 43.9648 81.8867 45.0117 81.8867 46.4492ZM77.1523 44.8555C77.1523 43.8477 77.1016 43.2188 77 42.9688C76.9062 42.7109 76.6797 42.582 76.3203 42.582C75.9688 42.582 75.7344 42.7188 75.6172 42.9922C75.5078 43.2578 75.4531 43.8789 75.4531 44.8555V54.1133C75.4531 55.2148 75.5039 55.8789 75.6055 56.1055C75.7148 56.332 75.9453 56.4453 76.2969 56.4453C76.6484 56.4453 76.8789 56.3125 76.9883 56.0469C77.0977 55.7812 77.1523 55.1836 77.1523 54.2539V44.8555Z" fill="white"/>
<path d="M34.175 77C33.3863 77 32.8187 76.8397 32.472 76.519C32.134 76.1897 31.965 75.6827 31.965 74.998V74.842H31.9C31.77 75.3273 31.5663 75.6783 31.289 75.895C31.0117 76.103 30.6477 76.207 30.197 76.207C29.599 76.207 29.1397 76.0467 28.819 75.726C28.4983 75.4053 28.338 74.9547 28.338 74.374C28.338 74.0793 28.3813 73.8107 28.468 73.568C28.5547 73.3167 28.689 73.0827 28.871 72.866C29.053 72.6493 29.2783 72.4457 29.547 72.255C29.8243 72.0557 30.1493 71.8563 30.522 71.657L31.9 70.929V70.24H33.083V74.712C33.083 75.024 33.161 75.2407 33.317 75.362C33.473 75.4747 33.72 75.531 34.058 75.531H34.487V76.688L34.175 77ZM30.483 74.738C31.003 74.738 31.367 74.673 31.575 74.543C31.7917 74.413 31.9 74.1833 31.9 73.854V72.099L30.73 72.697C30.262 72.9397 29.924 73.1563 29.716 73.347C29.508 73.529 29.404 73.7543 29.404 74.023C29.404 74.2743 29.482 74.4563 29.638 74.569C29.8027 74.6817 30.0843 74.738 30.483 74.738ZM32.42 69.187C32.2207 69.187 32.0603 69.1263 31.939 69.005C31.8263 68.8837 31.77 68.6973 31.77 68.446C31.77 68.186 31.8263 67.9997 31.939 67.887C32.0603 67.7657 32.2207 67.705 32.42 67.705H32.615C32.8143 67.705 32.9747 67.7657 33.096 67.887C33.2173 67.9997 33.278 68.186 33.278 68.446C33.278 68.6973 33.2173 68.8837 33.096 69.005C32.9747 69.1263 32.8143 69.187 32.615 69.187H32.42ZM30.587 69.187C30.3877 69.187 30.2273 69.1263 30.106 69.005C29.9933 68.8837 29.937 68.6973 29.937 68.446C29.937 68.186 29.9933 67.9997 30.106 67.887C30.2273 67.7657 30.3877 67.705 30.587 67.705H30.782C30.9813 67.705 31.1417 67.7657 31.263 67.887C31.3843 67.9997 31.445 68.186 31.445 68.446C31.445 68.6973 31.3843 68.8837 31.263 69.005C31.1417 69.1263 30.9813 69.187 30.782 69.187H30.587ZM34.1753 75.843L34.4873 75.531H34.9163C35.6356 75.531 35.9953 75.1887 35.9953 74.504V72.528H37.1263V74.504C37.1263 75.1887 37.4643 75.531 38.1403 75.531H38.6343V76.688L38.3093 77C37.668 77 37.1696 76.883 36.8143 76.649C36.4676 76.4063 36.238 76.0293 36.1253 75.518H36.0473C35.9433 76.0553 35.7483 76.4367 35.4623 76.662C35.185 76.8873 34.756 77 34.1753 77V75.843ZM37.3733 79.691C37.174 79.691 37.0136 79.6303 36.8923 79.509C36.7796 79.3877 36.7233 79.2013 36.7233 78.95C36.7233 78.69 36.7796 78.4993 36.8923 78.378C37.0136 78.2653 37.174 78.209 37.3733 78.209H37.5683C37.7676 78.209 37.928 78.2653 38.0493 78.378C38.1706 78.4993 38.2313 78.69 38.2313 78.95C38.2313 79.2013 38.1706 79.3877 38.0493 79.509C37.928 79.6303 37.7676 79.691 37.5683 79.691H37.3733ZM35.5403 79.691C35.341 79.691 35.1806 79.6303 35.0593 79.509C34.9466 79.3877 34.8903 79.2013 34.8903 78.95C34.8903 78.69 34.9466 78.4993 35.0593 78.378C35.1806 78.2653 35.341 78.209 35.5403 78.209H35.7353C35.9346 78.209 36.095 78.2653 36.2163 78.378C36.3376 78.4993 36.3983 78.69 36.3983 78.95C36.3983 79.2013 36.3376 79.3877 36.2163 79.509C36.095 79.6303 35.9346 79.691 35.7353 79.691H35.5403ZM38.3267 75.843L38.6387 75.531H39.0677C39.787 75.531 40.1467 75.1887 40.1467 74.504V72.528H41.2777V74.504C41.2777 75.1887 41.6157 75.531 42.2917 75.531H42.7857V76.688L42.4607 77C41.8193 77 41.321 76.883 40.9657 76.649C40.619 76.4063 40.3893 76.0293 40.2767 75.518H40.1987C40.0947 76.0553 39.8997 76.4367 39.6137 76.662C39.3363 76.8873 38.9073 77 38.3267 77V75.843ZM40.6017 71.202C40.4023 71.202 40.242 71.1413 40.1207 71.02C40.008 70.8987 39.9517 70.7123 39.9517 70.461C39.9517 70.201 40.008 70.0147 40.1207 69.902C40.242 69.7807 40.4023 69.72 40.6017 69.72H40.7967C40.996 69.72 41.1563 69.7807 41.2777 69.902C41.399 70.0147 41.4597 70.201 41.4597 70.461C41.4597 70.7123 41.399 70.8987 41.2777 71.02C41.1563 71.1413 40.996 71.202 40.7967 71.202H40.6017ZM42.478 75.843L42.79 75.531H43.999C44.389 75.531 44.6577 75.492 44.805 75.414C44.9524 75.3273 45.026 75.1843 45.026 74.985C45.026 74.855 44.987 74.725 44.909 74.595C44.831 74.465 44.6837 74.2743 44.467 74.023L42.92 72.32V69.564L48.796 67.237V68.641L43.453 70.76V70.838L46.521 74.179C46.7724 74.4563 46.9977 74.6817 47.197 74.855C47.3964 75.0283 47.587 75.167 47.769 75.271C47.951 75.3663 48.133 75.4357 48.315 75.479C48.497 75.5137 48.7007 75.531 48.926 75.531V76.688L48.614 77C48.3107 77 48.042 76.9783 47.808 76.935C47.574 76.883 47.353 76.792 47.145 76.662C46.937 76.532 46.7247 76.3587 46.508 76.142C46.2914 75.9167 46.053 75.6307 45.793 75.284L45.52 74.92L45.455 74.946C45.481 75.0933 45.494 75.232 45.494 75.362C45.494 75.8473 45.3467 76.2417 45.052 76.545C44.766 76.8483 44.376 77 43.882 77H42.478V75.843ZM48.6099 75.843L48.9219 75.531H49.1819C49.3639 75.531 49.5242 75.518 49.6629 75.492C49.8015 75.466 49.9229 75.4183 50.0269 75.349C50.1309 75.2797 50.2262 75.1887 50.3129 75.076C50.3995 74.9633 50.4862 74.8203 50.5729 74.647L51.1059 73.568L52.0809 74.062L51.4829 75.219L51.5739 75.271C51.8339 75.4183 52.0852 75.5267 52.3279 75.596C52.5705 75.6653 52.8175 75.7 53.0689 75.7C53.4589 75.7 53.7449 75.6133 53.9269 75.44C54.1089 75.258 54.1999 74.946 54.1999 74.504V73.568H55.3309V74.504C55.3309 74.9287 55.3959 75.232 55.5259 75.414C55.6559 75.5873 55.8595 75.674 56.1369 75.674H56.3319C56.8259 75.674 57.0729 75.3923 57.0729 74.829C57.0729 74.5517 57.0339 74.153 56.9559 73.633L56.8389 72.944L57.9569 72.775L58.0609 73.451C58.0955 73.711 58.1215 73.958 58.1389 74.192C58.1562 74.426 58.1649 74.6383 58.1649 74.829C58.1649 75.5917 58.0002 76.1723 57.6709 76.571C57.3502 76.961 56.8692 77.156 56.2279 77.156C55.6732 77.156 55.2442 77.0303 54.9409 76.779C54.6375 76.5277 54.4382 76.1463 54.3429 75.635H54.2649C54.1175 76.649 53.6365 77.156 52.8219 77.156C52.5705 77.156 52.3105 77.1083 52.0419 77.013C51.7819 76.9177 51.4699 76.7617 51.1059 76.545L50.7549 76.337C50.5035 76.6057 50.2089 76.7833 49.8709 76.87C49.5415 76.9567 49.1212 77 48.6099 77V75.843ZM64.6951 77.13C63.8978 77.13 63.2781 76.9133 62.8361 76.48C62.4028 76.038 62.1861 75.4617 62.1861 74.751C62.1861 73.789 62.6715 72.8097 63.6421 71.813L64.0061 71.423H65.4881L65.8131 71.735C66.3158 72.229 66.6711 72.7013 66.8791 73.152C67.0958 73.594 67.2041 74.062 67.2041 74.556C67.2041 74.946 67.1478 75.3013 67.0351 75.622C66.9225 75.934 66.7578 76.2027 66.5411 76.428C66.3245 76.6533 66.0601 76.8267 65.7481 76.948C65.4448 77.0693 65.0938 77.13 64.6951 77.13ZM64.8251 75.661C65.2151 75.661 65.5271 75.5657 65.7611 75.375C66.0038 75.1757 66.1251 74.9243 66.1251 74.621C66.1251 74.413 66.0515 74.1963 65.9041 73.971C65.7655 73.737 65.5141 73.4553 65.1501 73.126L64.6171 72.619H64.5261L64.0711 73.126C63.7938 73.4293 63.5901 73.685 63.4601 73.893C63.3301 74.101 63.2651 74.322 63.2651 74.556C63.2651 74.8593 63.3821 75.1193 63.6161 75.336C63.8588 75.5527 64.1751 75.661 64.5651 75.661H64.8251ZM65.5401 70.097C65.3408 70.097 65.1805 70.0363 65.0591 69.915C64.9465 69.7937 64.8901 69.6073 64.8901 69.356C64.8901 69.096 64.9465 68.9097 65.0591 68.797C65.1805 68.6757 65.3408 68.615 65.5401 68.615H65.7351C65.9345 68.615 66.0948 68.6757 66.2161 68.797C66.3375 68.9097 66.3981 69.096 66.3981 69.356C66.3981 69.6073 66.3375 69.7937 66.2161 69.915C66.0948 70.0363 65.9345 70.097 65.7351 70.097H65.5401ZM63.7071 70.097C63.5078 70.097 63.3475 70.0363 63.2261 69.915C63.1135 69.7937 63.0571 69.6073 63.0571 69.356C63.0571 69.096 63.1135 68.9097 63.2261 68.797C63.3475 68.6757 63.5078 68.615 63.7071 68.615H63.9021C64.1015 68.615 64.2618 68.6757 64.3831 68.797C64.5045 68.9097 64.5651 69.096 64.5651 69.356C64.5651 69.6073 64.5045 69.7937 64.3831 69.915C64.2618 70.0363 64.1015 70.097 63.9021 70.097H63.7071ZM69.4545 77C69.0125 77 68.6658 76.883 68.4145 76.649C68.1631 76.415 68.0375 76.051 68.0375 75.557V74.608H69.1945V75.531H70.9625C71.4218 75.531 71.7381 75.492 71.9115 75.414C72.0848 75.336 72.1715 75.1887 72.1715 74.972C72.1715 74.8767 72.1498 74.7597 72.1065 74.621C72.0631 74.4737 72.0025 74.2873 71.9245 74.062L70.7155 70.695L71.9505 70.253L73.2765 73.932C73.3891 74.2527 73.4931 74.517 73.5885 74.725C73.6925 74.9243 73.7965 75.0847 73.9005 75.206C74.0045 75.3273 74.1128 75.414 74.2255 75.466C74.3468 75.5093 74.4855 75.531 74.6415 75.531H74.9925V76.688L74.6675 77C74.3815 77 74.1301 76.9783 73.9135 76.935C73.6968 76.883 73.5018 76.805 73.3285 76.701C73.1638 76.5883 73.0121 76.441 72.8735 76.259C72.7435 76.077 72.6135 75.8473 72.4835 75.57L72.4185 75.583C72.3405 76.0943 72.1671 76.4583 71.8985 76.675C71.6298 76.8917 71.2181 77 70.6635 77H69.4545ZM74.686 75.843L74.998 75.531H75.635C76.0597 75.531 76.4497 75.5223 76.805 75.505C77.1604 75.4877 77.507 75.4487 77.845 75.388C78.183 75.3187 78.5297 75.2233 78.885 75.102C79.2404 74.972 79.6347 74.803 80.068 74.595L80.965 74.166V74.101L78.963 73.672L76.584 73.087V74.14H75.427V73.139C75.427 72.671 75.5397 72.3243 75.765 72.099C75.999 71.865 76.324 71.748 76.74 71.748C76.8527 71.748 76.9827 71.761 77.13 71.787C77.286 71.813 77.533 71.8693 77.871 71.956L80.757 72.697C81.589 72.9137 82.304 73.022 82.902 73.022H83.136V74.491H82.122L80.588 75.453C80.0334 75.7997 79.5394 76.077 79.106 76.285C78.6727 76.4843 78.2654 76.6403 77.884 76.753C77.5027 76.857 77.13 76.9263 76.766 76.961C76.4107 76.987 76.0337 77 75.635 77H74.686V75.843ZM83.8183 78.651H84.6893C85.7727 78.651 86.57 78.4343 87.0813 78.001C87.6013 77.5677 87.8613 76.9827 87.8613 76.246V75.934H87.7963C87.5277 76.6533 86.973 77.013 86.1323 77.013C85.4303 77.013 84.8887 76.8223 84.5073 76.441C84.126 76.051 83.9353 75.505 83.9353 74.803C83.9353 74.387 83.996 73.997 84.1173 73.633C84.2473 73.269 84.4207 72.957 84.6373 72.697C84.8627 72.4283 85.127 72.216 85.4303 72.06C85.7337 71.904 86.063 71.826 86.4183 71.826C87.207 71.826 87.8223 72.1597 88.2643 72.827C88.715 73.4857 88.9403 74.4087 88.9403 75.596C88.9403 77.0173 88.585 78.1267 87.8743 78.924C87.1723 79.7213 86.128 80.12 84.7413 80.12H83.8183V78.651ZM86.4573 75.531C86.8213 75.531 87.1117 75.505 87.3283 75.453C87.5537 75.401 87.7313 75.3187 87.8613 75.206C87.844 74.634 87.6923 74.1747 87.4063 73.828C87.129 73.4813 86.7607 73.308 86.3013 73.308C85.9027 73.308 85.5863 73.4293 85.3523 73.672C85.1183 73.9147 85.0013 74.231 85.0013 74.621C85.0013 74.9417 85.101 75.1757 85.3003 75.323C85.5083 75.4617 85.8073 75.531 86.1973 75.531H86.4573Z" fill="white"/>
</svg>
