<svg width="101" height="101" viewBox="0 0 101 101" fill="none" xmlns="http://www.w3.org/2000/svg">
<path d="M5.22181 70.256L5.22241 70.2574C12.865 87.6807 30.2662 99.8468 50.5099 99.8468C74.7728 99.8468 94.9508 82.3595 99.1366 59.2876C99.5734 56.8017 99.845 54.2505 99.9135 51.6435C99.9136 51.4395 99.9161 51.2344 99.9184 51.0358L99.9185 51.0306C99.921 50.824 99.9234 50.6244 99.9234 50.4283C99.9234 23.1412 77.7947 1.0099 50.5 1L5.22181 70.256ZM5.22181 70.256C3.42683 66.1806 2.18395 61.8119 1.55261 57.2463L1.55241 57.2449M5.22181 70.256L1.55241 57.2449M1.55241 57.2449C1.24167 55.021 1.07661 52.7291 1.07661 50.4184M1.55241 57.2449L1.07661 50.4184M1.07661 50.4184C1.07661 23.1313 23.2053 1.00019 50.4996 1L1.07661 50.4184Z" fill="#F0F0F0" stroke="#EAC395" stroke-width="2"/>
<g filter="url(#filter0_d_1_415)">
<path d="M71.7 69.4495C71.7 69.8151 71.7 70.1808 71.7 70.5464C71.4749 70.7714 71.2498 70.9965 71.0247 71.2216C57.0755 71.2216 43.1262 71.2216 29.1769 71.2216C28.6338 70.9669 28.4679 70.5316 28.5049 69.9525C28.5746 68.8652 28.7469 67.8011 29.1452 66.7867C30.4777 63.3947 32.9503 61.3078 36.4659 60.4286C38.5349 59.9109 40.605 59.3931 42.6771 58.8869C42.9518 58.8193 43.1051 58.7062 43.1653 58.4114C43.2953 57.7795 43.477 57.1582 43.6102 56.5274C43.6387 56.3911 43.5996 56.1871 43.5108 56.0888C41.9089 54.3136 40.8818 52.2552 40.4454 49.9051C40.4031 49.6758 40.3154 49.5564 40.0745 49.4772C38.9977 49.1242 38.3817 48.3508 38.2147 47.2433C38.0499 46.1465 37.9273 45.0423 37.7921 43.9412C37.6896 43.1043 37.7604 42.2886 38.3563 41.644C38.7082 41.2636 39.1615 40.9762 39.6117 40.6116C39.6117 40.6095 39.6022 40.5271 39.5937 40.4436C39.4299 38.8364 39.2049 37.2334 39.3771 35.6103C39.6022 33.4875 40.5627 31.8591 42.5239 30.9039C43.6355 30.3628 44.8232 30.0765 46.0458 29.9687C47.1754 29.8694 48.2363 29.7067 49.2909 29.1487C51.5068 27.9737 53.9466 27.8427 56.3992 28.128C58.9268 28.4217 60.926 29.5619 62.0926 31.9204C62.5924 32.9295 62.8386 33.9746 62.5121 35.0957C62.2754 35.9062 61.7703 36.5328 61.1838 37.1129C61.0528 37.2419 60.9028 37.4225 60.8901 37.5895C60.8151 38.5838 60.7707 39.5813 60.7358 40.5789C60.7316 40.6856 60.8246 40.8494 60.9197 40.898C62.194 41.5679 62.5766 42.651 62.4001 44.0078C62.2638 45.0528 62.1306 46.0979 61.9986 47.143C61.8622 48.2229 61.298 48.9805 60.3068 49.436C60.1694 49.4994 60.0141 49.6663 59.9887 49.8069C59.5418 52.2499 58.4713 54.3728 56.787 56.1966C56.6708 56.3224 56.6116 56.5749 56.6433 56.7461C56.7447 57.2966 56.918 57.8345 57.0311 58.384C57.0934 58.6851 57.2456 58.8172 57.5404 58.889C59.6126 59.3941 61.6837 59.9045 63.7505 60.4318C67.6011 61.4156 70.1551 63.7847 71.3153 67.6035C71.4992 68.2016 71.5753 68.8335 71.7 69.4495Z" fill="white"/>
</g>
<defs>
<filter id="filter0_d_1_415" x="13.5" y="17" width="73.2" height="73.2217" filterUnits="userSpaceOnUse" color-interpolation-filters="sRGB">
<feFlood flood-opacity="0" result="BackgroundImageFix"/>
<feColorMatrix in="SourceAlpha" type="matrix" values="0 0 0 0 0 0 0 0 0 0 0 0 0 0 0 0 0 0 127 0" result="hardAlpha"/>
<feOffset dy="4"/>
<feGaussianBlur stdDeviation="7.5"/>
<feComposite in2="hardAlpha" operator="out"/>
<feColorMatrix type="matrix" values="0 0 0 0 0 0 0 0 0 0 0 0 0 0 0 0 0 0 0.05 0"/>
<feBlend mode="normal" in2="BackgroundImageFix" result="effect1_dropShadow_1_415"/>
<feBlend mode="normal" in="SourceGraphic" in2="effect1_dropShadow_1_415" result="shape"/>
</filter>
</defs>
</svg>
