<svg width="21" height="21" viewBox="0 0 21 21" fill="none" xmlns="http://www.w3.org/2000/svg">
<path d="M18.8083 15.6218C18.8083 15.9218 18.7417 16.2301 18.6 16.5301C18.4583 16.8301 18.275 17.1134 18.0333 17.3801C17.625 17.8301 17.175 18.1551 16.6667 18.3634C16.1667 18.5718 15.625 18.6801 15.0417 18.6801C14.1917 18.6801 13.2833 18.4801 12.325 18.0718C11.3667 17.6634 10.4083 17.1134 9.45832 16.4218C8.49999 15.7218 7.59166 14.9468 6.72499 14.0884C5.86666 13.2218 5.09166 12.3134 4.39999 11.3634C3.71666 10.4134 3.16666 9.46343 2.76666 8.52176C2.36666 7.57176 2.16666 6.66343 2.16666 5.79676C2.16666 5.23009 2.26666 4.68843 2.46666 4.18843C2.66666 3.68009 2.98332 3.21343 3.42499 2.79676C3.95832 2.27176 4.54166 2.01343 5.15832 2.01343C5.39166 2.01343 5.62499 2.06343 5.83332 2.16343C6.04999 2.26343 6.24166 2.41343 6.39166 2.63009L8.32499 5.35509C8.47499 5.56343 8.58332 5.75509 8.65832 5.93843C8.73332 6.11343 8.77499 6.28843 8.77499 6.44676C8.77499 6.64676 8.71666 6.84676 8.59999 7.03843C8.49166 7.23009 8.33332 7.43009 8.13332 7.63009L7.49999 8.28843C7.40832 8.38009 7.36666 8.48843 7.36666 8.62176C7.36666 8.68843 7.37499 8.74676 7.39166 8.81343C7.41666 8.88009 7.44166 8.93009 7.45832 8.98009C7.60832 9.25509 7.86666 9.61343 8.23332 10.0468C8.60832 10.4801 9.00832 10.9218 9.44166 11.3634C9.89166 11.8051 10.325 12.2134 10.7667 12.5884C11.2 12.9551 11.5583 13.2051 11.8417 13.3551C11.8833 13.3718 11.9333 13.3968 11.9917 13.4218C12.0583 13.4468 12.125 13.4551 12.2 13.4551C12.3417 13.4551 12.45 13.4051 12.5417 13.3134L13.175 12.6884C13.3833 12.4801 13.5833 12.3218 13.775 12.2218C13.9667 12.1051 14.1583 12.0468 14.3667 12.0468C14.525 12.0468 14.6917 12.0801 14.875 12.1551C15.0583 12.2301 15.25 12.3384 15.4583 12.4801L18.2167 14.4384C18.4333 14.5884 18.5833 14.7634 18.675 14.9718C18.7583 15.1801 18.8083 15.3884 18.8083 15.6218Z" stroke="#BA9558" stroke-width="1.3" stroke-miterlimit="10"/>
</svg>
