<svg width="21" height="21" viewBox="0 0 21 21" fill="none" xmlns="http://www.w3.org/2000/svg">
<path d="M7.58334 16.1801H7.16667C3.83334 16.1801 2.16667 15.3468 2.16667 11.1801V7.01343C2.16667 3.68009 3.83334 2.01343 7.16667 2.01343H13.8333C17.1667 2.01343 18.8333 3.68009 18.8333 7.01343V11.1801C18.8333 14.5134 17.1667 16.1801 13.8333 16.1801H13.4167C13.1583 16.1801 12.9083 16.3051 12.75 16.5134L11.5 18.1801C10.95 18.9134 10.05 18.9134 9.50001 18.1801L8.25001 16.5134C8.11667 16.3301 7.80834 16.1801 7.58334 16.1801Z" stroke="#41394C" stroke-width="1.3" stroke-miterlimit="10" stroke-linecap="round" stroke-linejoin="round"/>
<path d="M6.33333 7.01343H14.6667" stroke="#41394C" stroke-width="1.3" stroke-linecap="round" stroke-linejoin="round"/>
<path d="M6.33333 11.1799H11.3333" stroke="#41394C" stroke-width="1.3" stroke-linecap="round" stroke-linejoin="round"/>
</svg>
