<svg width="39" height="39" viewBox="0 0 39 39" fill="none" xmlns="http://www.w3.org/2000/svg">
<g clip-path="url('#clip0_1_386')">
<path d="M11.8705 27.854C12.2573 27.4 12.6405 26.9424 13.0291 26.4902C14.7253 24.5181 16.4214 22.5477 18.1175 20.5756C18.152 20.5338 18.1865 20.492 18.2265 20.443C16.1072 17.3613 13.9916 14.2814 11.8615 11.1815C11.9232 11.176 11.9631 11.1706 12.0031 11.1706C13.5285 11.1706 15.0558 11.1724 16.5812 11.1669C16.6902 11.1669 16.7446 11.2069 16.8009 11.2904C18.1393 13.2426 19.4795 15.1912 20.8197 17.1415C20.8524 17.1906 20.8869 17.236 20.9323 17.2995C21.2101 16.9781 21.4789 16.6657 21.7459 16.3552C23.1877 14.6809 24.6296 13.0065 26.0661 11.3267C26.1678 11.2069 26.2713 11.1615 26.4256 11.1669C26.8197 11.1778 27.2138 11.1706 27.6478 11.1706C25.6084 13.5422 23.5927 15.8867 21.5733 18.2329C21.6078 18.2856 21.6369 18.331 21.6678 18.3764C23.8034 21.4854 25.9408 24.5943 28.0764 27.7033C28.1091 27.7523 28.1363 27.805 28.1654 27.8558C26.5473 27.8558 24.9275 27.8558 23.3094 27.8558C23.2913 27.8231 23.2731 27.7886 23.2513 27.7578C21.8167 25.6694 20.382 23.581 18.9456 21.4926C18.922 21.4581 18.8929 21.4272 18.8603 21.3891C18.8094 21.4472 18.7658 21.4944 18.7241 21.5435C17.5673 22.8873 16.4087 24.2329 15.2519 25.5786C14.6018 26.3359 13.9535 27.0949 13.3033 27.854C12.8257 27.854 12.3481 27.854 11.8705 27.854ZM13.8191 12.2529C13.8681 12.3274 13.8954 12.3728 13.9262 12.4182C17.2531 17.176 20.58 21.9339 23.9051 26.6936C23.9722 26.7898 24.0431 26.8225 24.1575 26.8207C24.7767 26.8153 25.396 26.8189 26.0152 26.8171C26.0661 26.8171 26.1187 26.8116 26.1986 26.808C26.1442 26.7263 26.1024 26.6664 26.0606 26.6046C22.7937 21.9357 19.5285 17.2686 16.2725 12.5925C16.0945 12.3382 15.922 12.2275 15.606 12.2438C15.0231 12.2729 14.4365 12.2529 13.8191 12.2529Z" fill="white"></path>
</g>
<circle cx="19.6" cy="19.1" r="18.6" stroke="white"></circle>
<defs>
<clipPath id="clip0_1_386">
<rect width="16.7125" height="16.7125" fill="white" transform="translate(11.6417 11.1416)"></rect>
</clipPath>
</defs>
</svg>
