<svg width="118" height="118" viewBox="0 0 118 118" fill="none" xmlns="http://www.w3.org/2000/svg">
<circle cx="59" cy="59" r="53" fill="#41394C" stroke="#F0EBDF" stroke-width="12"></circle>
<path d="M57.5508 51.7656V55H47.1328V52.293C50.2188 47.2461 52.0508 44.125 52.6289 42.9297C53.2148 41.7266 53.5078 40.7891 53.5078 40.1172C53.5078 39.6016 53.418 39.2188 53.2383 38.9688C53.0664 38.7109 52.8008 38.582 52.4414 38.582C52.082 38.582 51.8125 38.7227 51.6328 39.0039C51.4609 39.2852 51.375 39.8438 51.375 40.6797V42.4844H47.1328V41.793C47.1328 40.7305 47.1875 39.8945 47.2969 39.2852C47.4062 38.668 47.6758 38.0625 48.1055 37.4688C48.5352 36.875 49.0938 36.4258 49.7812 36.1211C50.4688 35.8164 51.293 35.6641 52.2539 35.6641C54.1367 35.6641 55.5586 36.1328 56.5195 37.0703C57.4883 38 57.9727 39.1797 57.9727 40.6094C57.9727 41.6953 57.6992 42.8438 57.1523 44.0547C56.6133 45.2656 55.0156 47.8359 52.3594 51.7656H57.5508ZM70.5586 42.4492V48.7773C70.5586 50.2148 70.4805 51.2617 70.3242 51.918C70.168 52.5742 69.8438 53.1875 69.3516 53.7578C68.8594 54.3281 68.2656 54.7383 67.5703 54.9883C66.875 55.2383 66.0977 55.3633 65.2383 55.3633C64.1055 55.3633 63.1641 55.2344 62.4141 54.9766C61.6641 54.7109 61.0664 54.3008 60.6211 53.7461C60.1758 53.1914 59.8594 52.6094 59.6719 52C59.4844 51.3828 59.3906 50.4062 59.3906 49.0703V42.4492C59.3906 40.707 59.5391 39.4023 59.8359 38.5352C60.1406 37.668 60.7383 36.9727 61.6289 36.4492C62.5273 35.9258 63.6133 35.6641 64.8867 35.6641C65.9258 35.6641 66.8555 35.8477 67.6758 36.2148C68.4961 36.5742 69.1094 37.0156 69.5156 37.5391C69.9219 38.0625 70.1953 38.6523 70.3359 39.3086C70.4844 39.9648 70.5586 41.0117 70.5586 42.4492ZM65.8242 40.8555C65.8242 39.8477 65.7734 39.2188 65.6719 38.9688C65.5781 38.7109 65.3516 38.582 64.9922 38.582C64.6406 38.582 64.4062 38.7188 64.2891 38.9922C64.1797 39.2578 64.125 39.8789 64.125 40.8555V50.1133C64.125 51.2148 64.1758 51.8789 64.2773 52.1055C64.3867 52.332 64.6172 52.4453 64.9688 52.4453C65.3203 52.4453 65.5508 52.3125 65.6602 52.0469C65.7695 51.7812 65.8242 51.1836 65.8242 50.2539V40.8555Z" fill="white"></path>
<path d="M29.771 76.12C29.095 76.12 28.4927 76.042 27.964 75.886C27.4353 75.73 26.9847 75.5003 26.612 75.197C26.2393 74.9023 25.9533 74.5383 25.754 74.105C25.5633 73.6803 25.468 73.195 25.468 72.649C25.468 72.259 25.52 71.8257 25.624 71.349C25.7367 70.8723 25.8883 70.4043 26.079 69.945L27.197 70.283C27.0323 70.647 26.898 71.0197 26.794 71.401C26.69 71.7737 26.638 72.103 26.638 72.389C26.638 72.987 26.872 73.4507 27.34 73.78C27.808 74.118 28.458 74.287 29.29 74.287H30.252C31.1967 74.287 31.942 74.1527 32.488 73.884C33.034 73.624 33.3243 73.247 33.359 72.753L31.383 72.389C30.6723 72.259 30.1567 72.0423 29.836 71.739C29.524 71.4357 29.368 70.9763 29.368 70.361C29.368 69.8843 29.459 69.4293 29.641 68.996C29.823 68.5627 30.0657 68.1813 30.369 67.852C30.6723 67.5227 31.0233 67.2583 31.422 67.059C31.8293 66.8597 32.254 66.76 32.696 66.76C33.3547 66.7513 33.9093 66.916 34.36 67.254C34.8107 67.592 35.1747 68.1293 35.452 68.866L35.907 70.062C35.9937 70.296 36.0803 70.491 36.167 70.647C36.2537 70.803 36.3447 70.933 36.44 71.037C36.544 71.1323 36.6567 71.2017 36.778 71.245C36.8993 71.2797 37.0423 71.297 37.207 71.297H37.545V72.649L37.194 73C36.83 73 36.5223 72.9697 36.271 72.909C36.0197 72.8397 35.7943 72.7183 35.595 72.545C35.3957 72.3717 35.2137 72.1333 35.049 71.83C34.8843 71.5267 34.711 71.141 34.529 70.673L34.074 69.503C33.9353 69.139 33.7317 68.8747 33.463 68.71C33.203 68.5453 32.904 68.463 32.566 68.463C32.3147 68.463 32.0677 68.5063 31.825 68.593C31.5823 68.671 31.3657 68.7793 31.175 68.918C30.9843 69.0567 30.8283 69.217 30.707 69.399C30.5943 69.5723 30.538 69.7543 30.538 69.945C30.538 70.1443 30.6203 70.3047 30.785 70.426C30.9497 70.5473 31.227 70.6427 31.617 70.712L33.242 71.011C33.7013 71.0977 34.0307 71.2797 34.23 71.557C34.4293 71.8257 34.529 72.194 34.529 72.662C34.529 73.208 34.4207 73.6933 34.204 74.118C33.9873 74.5513 33.6753 74.9153 33.268 75.21C32.8607 75.5047 32.3623 75.73 31.773 75.886C31.1837 76.042 30.5163 76.12 29.771 76.12ZM32.579 65.564C32.371 65.564 32.1977 65.5033 32.059 65.382C31.929 65.252 31.864 65.0483 31.864 64.771C31.864 64.485 31.929 64.2813 32.059 64.16C32.1977 64.03 32.371 63.965 32.579 63.965H32.8C33.008 63.965 33.177 64.03 33.307 64.16C33.4457 64.2813 33.515 64.485 33.515 64.771C33.515 65.0483 33.4457 65.252 33.307 65.382C33.177 65.5033 33.008 65.564 32.8 65.564H32.579ZM30.629 78.85C30.421 78.85 30.2477 78.785 30.109 78.655C29.979 78.5337 29.914 78.3343 29.914 78.057C29.914 77.771 29.979 77.563 30.109 77.433C30.2477 77.3117 30.421 77.251 30.629 77.251H30.85C31.058 77.251 31.227 77.3117 31.357 77.433C31.4957 77.563 31.565 77.771 31.565 78.057C31.565 78.3343 31.4957 78.5337 31.357 78.655C31.227 78.785 31.058 78.85 30.85 78.85H30.629ZM28.692 78.85C28.484 78.85 28.3107 78.785 28.172 78.655C28.042 78.5337 27.977 78.3343 27.977 78.057C27.977 77.771 28.042 77.563 28.172 77.433C28.3107 77.3117 28.484 77.251 28.692 77.251H28.913C29.121 77.251 29.29 77.3117 29.42 77.433C29.5587 77.563 29.628 77.771 29.628 78.057C29.628 78.3343 29.5587 78.5337 29.42 78.655C29.29 78.785 29.121 78.85 28.913 78.85H28.692ZM37.192 71.648L37.543 71.297H38.752C39.1073 71.297 39.35 71.2623 39.48 71.193C39.6186 71.115 39.688 70.985 39.688 70.803C39.688 70.6817 39.6533 70.569 39.584 70.465C39.5146 70.3523 39.3846 70.1963 39.194 69.997L37.673 68.476V65.382L43.731 63.224V64.784L38.271 66.734V66.799L41.456 69.997C41.716 70.257 41.95 70.4737 42.158 70.647C42.366 70.8117 42.561 70.946 42.743 71.05C42.9336 71.1453 43.1156 71.2103 43.289 71.245C43.471 71.2797 43.6616 71.297 43.861 71.297V72.649L43.51 73C43.2066 73 42.938 72.974 42.704 72.922C42.47 72.8613 42.2403 72.7617 42.015 72.623C41.7983 72.4843 41.573 72.298 41.339 72.064C41.105 71.8213 40.8406 71.518 40.546 71.154L40.234 70.751L40.169 70.79C40.2036 70.9373 40.221 71.0933 40.221 71.258C40.221 71.7607 40.0736 72.1767 39.779 72.506C39.4843 72.8353 39.0813 73 38.57 73H37.192V71.648ZM43.5142 71.648L43.8652 71.297H44.0082C44.1989 71.297 44.3679 71.284 44.5152 71.258C44.6626 71.232 44.7882 71.1887 44.8922 71.128C45.0049 71.0673 45.1002 70.9893 45.1782 70.894C45.2649 70.79 45.3429 70.6643 45.4122 70.517L45.9322 69.451L47.0632 69.997L46.5172 71.076C46.7599 71.1973 47.0026 71.2927 47.2452 71.362C47.4879 71.4313 47.7306 71.466 47.9732 71.466C48.3546 71.466 48.6319 71.3837 48.8052 71.219C48.9786 71.0457 49.0652 70.7467 49.0652 70.322V69.451H50.3392V70.322C50.3392 70.712 50.4042 70.9937 50.5342 71.167C50.6642 71.3403 50.8506 71.427 51.0932 71.427H51.2622C51.7129 71.427 51.9382 71.1497 51.9382 70.595C51.9382 70.3177 51.8949 69.9233 51.8082 69.412L51.6912 68.736L52.9652 68.541L53.0562 69.204C53.1342 69.724 53.1732 70.1877 53.1732 70.595C53.1732 72.3023 52.5102 73.156 51.1842 73.156C50.5949 73.156 50.1442 73.0217 49.8322 72.753C49.5289 72.4757 49.3252 72.0597 49.2212 71.505H49.1432C49.0739 72.0597 48.9179 72.4757 48.6752 72.753C48.4326 73.0217 48.1162 73.156 47.7262 73.156C47.4749 73.156 47.2192 73.1083 46.9592 73.013C46.6992 72.9177 46.3829 72.7573 46.0102 72.532L45.6982 72.35C45.4382 72.6187 45.1392 72.7963 44.8012 72.883C44.4632 72.961 44.0342 73 43.5142 73V71.648ZM61.1205 76.952C59.8898 76.952 58.9278 76.6573 58.2345 76.068C57.5412 75.4873 57.1945 74.6597 57.1945 73.585C57.1945 72.8917 57.3982 72.2677 57.8055 71.713C58.2128 71.1583 58.8368 70.686 59.6775 70.296V70.231C58.6375 69.5983 58.1175 68.7707 58.1175 67.748C58.1175 67.3493 58.1825 66.9723 58.3125 66.617C58.4512 66.2617 58.6462 65.9497 58.8975 65.681C59.1488 65.4037 59.4522 65.187 59.8075 65.031C60.1628 64.8663 60.5615 64.784 61.0035 64.784C61.6015 64.784 62.1128 64.9183 62.5375 65.187C62.9622 65.447 63.3088 65.8023 63.5775 66.253L62.4075 67.345C62.2082 67.0417 61.9828 66.825 61.7315 66.695C61.4802 66.5563 61.1725 66.487 60.8085 66.487C60.3405 66.487 59.9722 66.5997 59.7035 66.825C59.4348 67.0417 59.3005 67.3537 59.3005 67.761C59.3005 68.2117 59.4738 68.5453 59.8205 68.762C60.1672 68.9787 60.6612 69.087 61.3025 69.087C61.7358 69.087 62.2472 69.035 62.8365 68.931L63.8895 68.749L64.1495 70.309L62.4465 70.621C61.0772 70.8637 60.0762 71.193 59.4435 71.609C58.8108 72.025 58.4945 72.571 58.4945 73.247V73.429C58.4945 74.027 58.7242 74.4777 59.1835 74.781C59.6515 75.0843 60.2972 75.236 61.1205 75.236C61.7185 75.236 62.3035 75.1233 62.8755 74.898C63.4475 74.6813 63.9545 74.365 64.3965 73.949L65.2935 75.288C64.7475 75.834 64.1192 76.2457 63.4085 76.523C62.6978 76.809 61.9352 76.952 61.1205 76.952ZM65.3425 74.417H66.2005C67.3098 74.417 68.1245 74.209 68.6445 73.793C69.1645 73.3857 69.4245 72.8397 69.4245 72.155V71.83H69.3465C69.2251 72.2287 69.0171 72.5277 68.7225 72.727C68.4365 72.9177 68.0811 73.013 67.6565 73.013C66.9545 73.013 66.4085 72.8137 66.0185 72.415C65.6285 72.0163 65.4335 71.4573 65.4335 70.738C65.4335 70.3047 65.4985 69.9017 65.6285 69.529C65.7585 69.1563 65.9361 68.8313 66.1615 68.554C66.3955 68.2767 66.6685 68.06 66.9805 67.904C67.3011 67.748 67.6478 67.67 68.0205 67.67C68.8351 67.67 69.4721 68.008 69.9315 68.684C70.3908 69.36 70.6205 70.3003 70.6205 71.505C70.6205 72.233 70.5295 72.8787 70.3475 73.442C70.1655 74.014 69.8925 74.4993 69.5285 74.898C69.1645 75.2967 68.7095 75.6 68.1635 75.808C67.6261 76.016 67.0021 76.12 66.2915 76.12H65.3425V74.417ZM68.0205 71.297C68.3758 71.297 68.6618 71.2797 68.8785 71.245C69.1038 71.2017 69.2815 71.1323 69.4115 71.037C69.3941 70.5343 69.2425 70.1313 68.9565 69.828C68.6705 69.5247 68.3108 69.373 67.8775 69.373C67.5048 69.373 67.2015 69.4813 66.9675 69.698C66.7421 69.9147 66.6295 70.1877 66.6295 70.517C66.6295 70.7943 66.7248 70.9937 66.9155 71.115C67.1061 71.2363 67.3835 71.297 67.7475 71.297H68.0205ZM70.6975 74.417H71.2955C72.0842 74.417 72.6519 74.2307 72.9985 73.858C73.3452 73.4853 73.5185 72.935 73.5185 72.207C73.5185 71.9903 73.5055 71.765 73.4795 71.531C73.4535 71.2883 73.4189 71.0413 73.3755 70.79L73.1545 69.451L77.6915 68.931V70.322C77.6915 70.7207 77.7782 71.011 77.9515 71.193C78.1335 71.375 78.4152 71.466 78.7965 71.466C79.1865 71.466 79.4639 71.3837 79.6285 71.219C79.8019 71.0457 79.8885 70.7467 79.8885 70.322V69.451H81.1755V70.322C81.1755 70.712 81.2319 70.9937 81.3445 71.167C81.4572 71.3403 81.6522 71.427 81.9295 71.427H82.1115C82.3629 71.427 82.5535 71.3403 82.6835 71.167C82.8135 70.9937 82.8785 70.712 82.8785 70.322V68.931H84.1525V70.322C84.1525 70.972 84.4775 71.297 85.1275 71.297H85.6215V72.649L85.2705 73C84.6379 73 84.1525 72.883 83.8145 72.649C83.4765 72.4063 83.2555 72.025 83.1515 71.505H83.0735C83.0215 72.077 82.8699 72.4973 82.6185 72.766C82.3759 73.026 82.0465 73.156 81.6305 73.156C80.7552 73.156 80.2265 72.6057 80.0445 71.505H79.9795C79.8235 72.6057 79.2819 73.156 78.3545 73.156C77.7132 73.1473 77.2279 72.948 76.8985 72.558C76.5779 72.168 76.4132 71.5657 76.4045 70.751L74.6625 70.933C74.6972 71.1757 74.7189 71.401 74.7275 71.609C74.7449 71.817 74.7535 72.0033 74.7535 72.168C74.7535 72.7487 74.6842 73.2773 74.5455 73.754C74.4069 74.2393 74.1945 74.6553 73.9085 75.002C73.6225 75.3573 73.2629 75.6303 72.8295 75.821C72.3962 76.0203 71.8892 76.12 71.3085 76.12H70.6975V74.417ZM81.3965 68.255C81.1972 68.255 81.0282 68.1943 80.8895 68.073C80.7595 67.943 80.6945 67.7393 80.6945 67.462C80.6945 67.176 80.7595 66.9723 80.8895 66.851C81.0282 66.721 81.1972 66.656 81.3965 66.656H81.6305C81.8299 66.656 81.9945 66.721 82.1245 66.851C82.2632 66.9723 82.3325 67.176 82.3325 67.462C82.3325 67.7393 82.2632 67.943 82.1245 68.073C81.9945 68.1943 81.8299 68.255 81.6305 68.255H81.3965ZM79.4595 68.255C79.2515 68.255 79.0782 68.1943 78.9395 68.073C78.8095 67.943 78.7445 67.7393 78.7445 67.462C78.7445 67.176 78.8095 66.9723 78.9395 66.851C79.0782 66.721 79.2515 66.656 79.4595 66.656H79.6805C79.8885 66.656 80.0575 66.721 80.1875 66.851C80.3262 66.9723 80.3955 67.176 80.3955 67.462C80.3955 67.7393 80.3262 67.943 80.1875 68.073C80.0575 68.1943 79.8885 68.255 79.6805 68.255H79.4595ZM80.4345 66.461C80.2265 66.461 80.0575 66.4003 79.9275 66.279C79.7975 66.149 79.7325 65.9453 79.7325 65.668C79.7325 65.3907 79.7975 65.187 79.9275 65.057C80.0575 64.927 80.2265 64.862 80.4345 64.862H80.6555C80.8635 64.862 81.0325 64.927 81.1625 65.057C81.2925 65.187 81.3575 65.3907 81.3575 65.668C81.3575 65.9453 81.2925 66.149 81.1625 66.279C81.0325 66.4003 80.8635 66.461 80.6555 66.461H80.4345ZM87.1281 72.259C86.9288 72.5363 86.6861 72.7313 86.4001 72.844C86.1141 72.948 85.7371 73 85.2691 73V71.648L85.6201 71.297C85.9495 71.297 86.1878 71.2363 86.3351 71.115C86.4825 70.9937 86.6125 70.7857 86.7251 70.491L87.0891 69.581C87.1931 69.3123 87.3145 69.061 87.4531 68.827C87.5918 68.593 87.7521 68.3937 87.9341 68.229C88.1161 68.0557 88.3241 67.9213 88.5581 67.826C88.7921 67.7307 89.0608 67.683 89.3641 67.683C90.1181 67.683 90.6945 67.995 91.0931 68.619C91.4918 69.243 91.6911 70.1053 91.6911 71.206V71.661L90.5991 73.286L87.1281 72.259ZM87.7781 70.686L90.4561 71.479V71.206C90.4561 70.634 90.3305 70.192 90.0791 69.88C89.8365 69.5593 89.5071 69.399 89.0911 69.399C88.7878 69.399 88.5408 69.4813 88.3501 69.646C88.1595 69.8107 88.0078 70.049 87.8951 70.361L87.7781 70.686Z" fill="white"></path>
</svg>
