<svg width="131" height="142" viewBox="0 0 131 142" fill="none" xmlns="http://www.w3.org/2000/svg">
<path d="M59.4841 0C60.8981 0.115637 62.0746 0.468445 63.3853 1.00253C63.6748 1.11977 63.6748 1.11977 63.9702 1.23938C65.5518 1.90116 66.9183 2.67863 68.2756 3.73547C68.5208 3.92114 68.5208 3.92114 68.7709 4.11056C71.413 6.25075 73.3167 9.96765 73.7274 13.3412C74.1656 18.4779 73.386 23.0555 71.7922 27.9062C71.7249 28.1141 71.6577 28.3221 71.5884 28.5363C70.6883 31.3017 69.6943 33.9336 68.2756 36.4758C68.1569 36.6933 68.0381 36.9109 67.9158 37.135C65.6409 41.0119 62.1992 43.0123 57.9456 44.1665C56.6109 44.4186 55.2677 44.5989 53.9216 44.7777C51.2699 45.1351 49.0081 45.598 47.176 47.6822C46.1348 49.2179 45.7646 50.9369 45.4177 52.7361C45.2001 52.7361 44.9825 52.7361 44.7583 52.7361C43.9688 47.0216 43.9308 40.506 47.3949 35.6398C50.1143 32.3573 53.9838 31.4308 57.9456 30.543C58.7475 30.3625 59.5486 30.1788 60.3495 29.9936C60.5366 29.952 60.7237 29.9104 60.9164 29.8675C63.9233 29.1702 67.3767 27.922 69.1547 25.2694C69.8097 24.1699 69.7456 22.9762 69.5076 21.7442C68.5322 18.6928 65.911 16.6392 63.2205 15.1616C63.0833 15.084 62.9462 15.0064 62.8049 14.9264C60.9148 14.0936 58.6668 13.9515 56.6268 13.8432C56.4845 9.1539 57.4227 4.24033 59.4841 0Z" fill="#41394C"></path>
<path d="M59.4841 0C60.8982 0.115637 62.0746 0.468445 63.3853 1.00253C63.6748 1.11977 63.6748 1.11977 63.9702 1.23938C65.5519 1.90116 66.9183 2.67863 68.2756 3.73547C68.4391 3.85925 68.6026 3.98303 68.771 4.11056C71.413 6.25075 73.3167 9.96765 73.7275 13.3412C74.1656 18.4779 73.386 23.0555 71.7922 27.9062C71.7249 28.1141 71.6577 28.3221 71.5884 28.5363C70.6884 31.3017 69.6944 33.9336 68.2756 36.4758C68.1569 36.6933 68.0382 36.9109 67.9159 37.135C65.6409 41.0119 62.1993 43.0123 57.9456 44.1665C56.6109 44.4186 55.2678 44.5989 53.9216 44.7777C51.2676 45.1354 49.0114 45.5994 47.176 47.6822C46.1135 49.2031 45.8918 50.6891 45.8573 52.5163C45.927 52.3965 45.9967 52.2767 46.0685 52.1533C47.4801 49.8726 49.6569 47.8215 52.3075 47.1028C54.8291 46.7575 57.2644 46.8279 59.4146 48.3079C61.9405 50.3755 62.678 53.1315 63.0883 56.2604C63.1581 56.9909 63.1951 57.7157 63.2205 58.4492C63.2265 58.6166 63.2325 58.784 63.2386 58.9565C63.4045 64.3122 62.7717 69.5004 59.1682 73.7206C55.8172 77.2156 51.4019 79.3693 47.2181 81.6937C42.303 84.3152 42.303 84.3152 38.0213 87.8342C37.7251 88.1132 37.7251 88.1132 37.2856 88.1132C37.2269 88.2455 37.1683 88.3778 37.1078 88.514C36.8388 89.0052 36.594 89.2488 36.1729 89.6101C35.3809 90.377 34.8276 91.226 34.2635 92.1645C34.1807 92.3009 34.098 92.4372 34.0127 92.5777C33.4434 93.549 33.0519 94.5257 32.67 95.5841C32.4606 95.9564 32.245 96.3257 32.0107 96.6828C31.8656 96.6103 31.7205 96.5378 31.5711 96.4631C31.4878 95.8476 31.4878 95.8476 31.4475 95.076C31.4076 94.1192 31.4076 94.1192 31.2413 93.1809C30.3559 89.5254 31.5489 85.4617 33.1096 82.1804C33.2473 81.88 33.2473 81.88 33.3878 81.5735C34.4872 79.3594 36.2199 77.6902 37.9999 76.0141C38.1954 75.83 38.3909 75.6459 38.5923 75.4562C39.1406 75.0258 39.5211 74.7959 40.1411 74.5258C41.1804 74.0277 41.9989 73.5504 42.5605 72.5121C42.9831 70.4752 42.8623 68.3597 42.8069 66.2906C42.7678 64.7711 42.8431 63.2735 42.9726 61.7589C42.9874 61.549 43.0022 61.339 43.0175 61.1228C43.1773 59.1672 43.6026 57.3282 44.3737 55.5239C44.7422 54.5477 44.7745 53.8225 44.6768 52.7859C44.1745 46.7494 43.7684 40.0171 47.8628 35.075C50.6248 32.2198 54.2202 31.3778 57.9456 30.543C58.7475 30.3625 59.5487 30.1788 60.3495 29.9936C60.5366 29.952 60.7237 29.9104 60.9165 29.8675C63.9234 29.1702 67.3768 27.922 69.1548 25.2694C69.8097 24.1699 69.7456 22.9762 69.5076 21.7442C68.5322 18.6928 65.9111 16.6392 63.2205 15.1616C63.0834 15.084 62.9462 15.0064 62.805 14.9264C60.9149 14.0936 58.6668 13.9515 56.6269 13.8432C56.4845 9.1539 57.4227 4.24033 59.4841 0Z" fill="#41394C"></path>
<path d="M86.0784 2.19727C89.9425 2.48057 94.0587 4.91846 96.6634 7.65027C100.009 11.6196 100.734 16.422 100.318 21.4331C99.5504 28.8112 96.7548 38.2411 91.0691 43.296C88.3863 45.4657 85.2865 45.975 81.9711 46.5835C77.9206 47.3347 74.9547 48.5304 72.0866 51.5867C71.7922 51.8571 71.7922 51.8571 71.3526 51.8571C70.564 47.8582 70.9647 42.6335 73.1109 39.1125C75.0905 36.2044 77.6344 34.5105 81.0232 33.6192C81.3898 33.5056 81.7561 33.3912 82.1222 33.2758C82.8286 33.0634 83.5266 32.8905 84.2514 32.754C87.8418 32.0687 92.6358 31.1195 95.1137 28.2477C95.9347 27.0322 96.361 26.1019 96.1886 24.6101C95.3726 21.4664 93.1309 19.3791 90.4466 17.7314C90.0233 17.5039 89.602 17.3166 89.1554 17.1392C88.9673 17.063 88.7791 16.9868 88.5853 16.9083C86.7543 16.2317 84.931 16.0068 83.0013 15.8208C83.785 4.4901 83.785 4.4901 86.0784 2.19727Z" fill="#41394C"></path>
<path d="M71.1328 52.2969C71.9911 52.4123 72.4311 52.6079 73.056 53.2033C74.7202 54.7303 76.5542 56.033 78.3858 57.3507C78.2417 58.1585 77.8908 58.7228 77.4517 59.4108C77.2942 59.6617 77.1371 59.9129 76.9804 60.1644C76.8915 60.3068 76.8026 60.4492 76.7111 60.5959C76.0923 61.596 75.4867 62.6039 74.8829 63.6132C74.6918 63.9281 74.6918 63.9281 74.4968 64.2495C74.3775 64.4497 74.2581 64.6498 74.1351 64.856C74.0278 65.0346 73.9204 65.2132 73.8098 65.3972C73.5402 65.9411 73.4215 66.4211 73.3307 67.019C75.3372 68.6954 77.3364 70.3594 79.4847 71.8532C79.346 72.5323 79.1174 73.0407 78.7593 73.6325C78.6019 73.8939 78.6019 73.8939 78.4414 74.1606C78.3278 74.3463 78.2143 74.5321 78.0973 74.7234C77.9812 74.9151 77.8651 75.1068 77.7455 75.3043C76.52 77.3199 75.2599 79.3138 73.99 81.3017C73.1025 81.0023 72.5518 80.6116 71.8746 79.9696C70.3718 78.5772 68.7767 77.3061 67.1766 76.0281C67.2924 75.0549 67.5199 74.3906 68.0369 73.5604C68.1681 73.3475 68.2993 73.1347 68.4344 72.9154C68.5724 72.6963 68.7104 72.4772 68.8525 72.2514C68.9854 72.0366 69.1183 71.8217 69.2552 71.6004C69.8007 70.7207 70.3465 69.8439 70.9257 68.9858C71.0683 68.7727 71.2108 68.5596 71.3577 68.34C71.4885 68.1493 71.6192 67.9586 71.7539 67.7621C72.0531 67.2652 72.0531 67.2652 71.9811 66.7675C71.6469 66.0463 70.9946 65.6035 70.391 65.1101C70.2536 64.9945 70.1161 64.8789 69.9745 64.7598C69.3191 64.2111 68.6563 63.6737 67.9811 63.1497C67.6577 62.8964 67.6577 62.8964 67.3277 62.6381C67.0366 62.4176 67.0366 62.4176 66.7396 62.1926C66.2101 61.657 66.1453 61.3881 66.0777 60.6468C66.2565 60.1814 66.2565 60.1814 66.5482 59.7172C66.6556 59.5425 66.7631 59.3678 66.8738 59.1878C66.9919 59.003 67.1099 58.8183 67.2316 58.628C67.3502 58.4367 67.4689 58.2454 67.5911 58.0484C67.8389 57.6491 68.088 57.2507 68.3382 56.853C68.8211 56.0832 69.2936 55.3073 69.7658 54.5309C70.2195 53.785 70.6762 53.041 71.1328 52.2969Z" fill="#41394C"></path>
<path d="M116.849 112.064C117.574 112.064 118.299 112.064 119.046 112.064C119.046 114.82 119.046 117.575 119.046 120.414C115.114 121.538 115.114 121.538 113.755 121.548C113.43 121.552 113.43 121.552 113.099 121.555C112.867 121.556 112.635 121.557 112.396 121.558C112.155 121.559 111.913 121.56 111.664 121.561C111.153 121.564 110.642 121.565 110.131 121.566C109.356 121.568 108.58 121.575 107.805 121.582C107.307 121.583 106.809 121.584 106.311 121.585C105.967 121.589 105.967 121.589 105.616 121.593C104.228 121.589 103.057 121.401 101.738 120.961C101.202 120.786 101.202 120.786 100.639 121.211C100.476 121.383 100.313 121.555 100.145 121.733C98.8509 122.457 97.6601 122.584 96.1885 122.392C95.2757 122.095 94.6131 121.712 93.9632 121.005C93.8272 120.883 93.6912 120.76 93.5511 120.634C92.8716 120.711 92.8716 120.711 92.2324 120.854C92.2064 123.21 92.2606 125.536 92.4522 127.885C92.1271 127.891 91.802 127.895 91.4768 127.899C91.2053 127.903 91.2053 127.903 90.9282 127.907C90.4741 127.885 90.4741 127.885 90.2543 127.666C89.9169 125.913 89.768 124.148 89.746 122.364C89.7422 122.209 89.7383 122.053 89.7344 121.892C89.7354 120.92 89.8713 120.303 90.4741 119.535C91.2938 119.03 91.6975 118.876 92.6719 118.876C92.6617 118.706 92.6515 118.536 92.641 118.361C92.5892 116.865 92.6103 115.692 93.5511 114.482C94.932 113.079 95.7618 112.643 97.7509 112.623C99.1562 112.656 100.036 113.064 101.024 114.042C101.935 115.106 102.151 116.115 102.246 117.489C102.265 117.748 102.283 118.007 102.302 118.275C102.316 118.473 102.329 118.672 102.343 118.876C104.075 118.881 105.808 118.885 107.541 118.888C108.346 118.889 109.151 118.89 109.955 118.893C110.732 118.895 111.509 118.896 112.285 118.897C112.725 118.898 113.166 118.899 113.606 118.901C113.874 118.901 114.143 118.901 114.419 118.901C114.773 118.902 114.773 118.902 115.135 118.903C115.801 118.895 115.801 118.895 116.629 118.656C116.701 116.481 116.774 114.306 116.849 112.064Z" fill="#C49D6F"></path>
<path d="M31.571 112.064C32.2963 112.064 33.0216 112.064 33.7689 112.064C33.7689 114.747 33.7689 117.43 33.7689 120.195C31.7471 121.093 30.4904 121.333 28.3704 121.334C28.1864 121.337 28.0024 121.34 27.8128 121.343C26.8141 121.345 26.124 121.248 25.1972 120.854C24.6707 120.884 24.6707 120.884 24.1669 121.032C23.9984 121.075 23.8298 121.117 23.6561 121.16C23.2089 121.283 23.2089 121.283 22.7795 121.513C21.7121 121.614 20.723 121.642 19.7437 121.17C18.971 120.821 18.728 120.805 17.9442 121.074C17.7771 121.149 17.6099 121.224 17.4377 121.301C16.7984 121.53 16.313 121.572 15.6364 121.568C15.4347 121.569 15.233 121.57 15.0252 121.571C14.4276 121.513 14.4276 121.513 13.3287 121.074C13.3287 122.234 13.3287 123.394 13.3287 124.589C10.9796 126.155 8.19908 126.65 5.41633 126.347C3.72176 125.96 2.19372 125.027 1.21767 123.567C0.516565 122.341 0.466616 121.269 0.512319 119.879C0.514444 119.679 0.516569 119.479 0.518758 119.273C0.543817 117.815 0.543817 117.815 0.80079 117.558C1.19916 117.529 1.19916 117.529 1.67994 117.53C1.8386 117.53 1.99726 117.529 2.16073 117.529C2.55909 117.558 2.55909 117.558 2.77888 117.778C2.81632 118.545 2.84417 119.311 2.854 120.08C2.89706 121.234 3.08441 121.937 3.87782 122.831C5.02743 123.67 5.86896 123.841 7.27078 123.793C7.42732 123.792 7.58385 123.792 7.74513 123.792C8.86078 123.774 9.83225 123.554 10.911 123.271C10.9193 122.873 10.9193 122.873 10.9277 122.468C10.9483 121.488 10.9704 120.508 10.9928 119.528C11.0024 119.103 11.0115 118.678 11.0203 118.253C11.033 117.644 11.047 117.035 11.0613 116.426C11.0649 116.235 11.0686 116.043 11.0724 115.846C11.1058 114.507 11.1058 114.507 11.3506 114.262C12.0034 114.262 12.6561 114.262 13.3287 114.262C13.4012 115.785 13.4737 117.307 13.5485 118.876C14.7815 118.876 16.0145 118.876 17.2849 118.876C17.2849 117.353 17.2849 115.831 17.2849 114.262C18.0102 114.262 18.7355 114.262 19.4827 114.262C19.5553 115.712 19.6278 117.162 19.7025 118.656C20.6392 119.125 21.99 118.886 22.9993 118.876C23.0719 117.136 23.1444 115.396 23.2191 113.603C24.0169 113.603 24.8148 113.603 25.6368 113.603C25.7456 116.104 25.7456 116.104 25.8566 118.656C26.5896 118.84 27.0927 118.902 27.8312 118.898C28.0366 118.897 28.242 118.896 28.4537 118.896C28.7728 118.893 28.7728 118.893 29.0984 118.89C29.3146 118.889 29.5308 118.888 29.7535 118.887C30.2861 118.884 30.8187 118.881 31.3513 118.876C31.3501 118.678 31.3489 118.479 31.3478 118.275C31.344 117.54 31.3413 116.806 31.3392 116.072C31.3381 115.754 31.3366 115.435 31.3347 115.117C31.332 114.661 31.3308 114.204 31.3298 113.748C31.3286 113.473 31.3275 113.198 31.3263 112.914C31.3513 112.284 31.3513 112.284 31.571 112.064Z" fill="#C49D6F"></path>
<path d="M59.484 59.3276C59.7816 59.5411 60.0764 59.7589 60.3632 59.9868C60.1558 61.8214 57.6836 63.6314 56.3202 64.7192C54.0164 66.4761 51.4812 67.8479 48.9342 69.2156C48.7131 69.3347 48.4921 69.4538 48.2643 69.5765C47.6233 69.9207 46.9811 70.2625 46.338 70.6026C46.0427 70.759 46.0427 70.759 45.7415 70.9186C45.5607 71.0129 45.3799 71.1072 45.1935 71.2043C45.0346 71.2874 44.8757 71.3705 44.712 71.4561C44.3187 71.6326 44.3187 71.6326 43.8791 71.6326C43.7658 67.9665 45.4136 64.1056 47.7941 61.3446C50.9961 58.1548 55.4299 57.0031 59.484 59.3276Z" fill="white"></path>
<path d="M37.9449 112.064C42.5379 111.912 42.5379 111.912 43.8431 113.086C45.5576 114.989 44.9781 116.022 44.9781 119.095C49.9826 118.987 49.9826 118.987 55.0883 118.876C55.0883 116.628 55.0883 114.38 55.0883 112.064C55.8861 112.064 56.684 112.064 57.506 112.064C57.5386 113.174 57.5625 114.285 57.5784 115.395C57.585 115.773 57.594 116.151 57.6055 116.528C57.6215 117.072 57.6289 117.615 57.6348 118.158C57.6416 118.327 57.6484 118.495 57.6554 118.669C57.6557 119.148 57.6557 119.148 57.506 119.974C57.0261 120.45 56.7897 120.61 56.1872 120.853C55.9478 120.95 55.9478 120.95 55.7034 121.049C53.7596 121.694 51.765 121.6 49.743 121.585C49.3577 121.584 48.9724 121.584 48.5871 121.583C47.785 121.582 46.983 121.579 46.1809 121.574C45.1509 121.568 44.1209 121.566 43.0908 121.565C42.2978 121.564 41.5048 121.562 40.7118 121.559C40.3316 121.558 39.9515 121.557 39.5713 121.556C39.0431 121.554 38.515 121.551 37.9868 121.548C37.8291 121.548 37.6713 121.547 37.5088 121.547C36.4316 121.538 36.4316 121.538 36.1866 121.293C36.1866 120.568 36.1866 119.843 36.1866 119.095C38.29 119.023 40.3933 118.95 42.5604 118.876C42.7509 116.078 42.7509 116.078 42.1208 114.701C41.3483 114.335 40.3864 114.406 39.5383 114.357C39.3851 114.348 39.2318 114.338 39.0739 114.329C38.6976 114.306 38.3212 114.283 37.9449 114.261C37.9449 113.536 37.9449 112.811 37.9449 112.064Z" fill="#C49D6F"></path>
<path d="M71.7921 112.064C72.5899 112.064 73.3878 112.064 74.2098 112.064C74.2315 113.144 74.2475 114.223 74.2581 115.302C74.2625 115.669 74.2685 116.036 74.2761 116.403C74.2868 116.931 74.2918 117.459 74.2956 117.987C74.3002 118.151 74.3047 118.314 74.3094 118.483C74.3097 119.235 74.2737 119.669 73.8213 120.281C72.3922 121.309 70.8077 121.389 69.0997 121.348C68.9082 121.347 68.7167 121.346 68.5193 121.345C67.6071 121.334 66.7469 121.301 65.8578 121.074C65.885 121.393 65.885 121.393 65.9128 121.719C65.9024 123.007 65.4219 124.093 64.5675 125.049C63.3561 126.167 62.4853 126.381 60.8439 126.361C60.5222 126.358 60.5222 126.358 60.194 126.355C60.0322 126.352 59.8705 126.35 59.7038 126.347C59.7038 125.622 59.7038 124.897 59.7038 124.15C60.003 124.132 60.3022 124.114 60.6104 124.095C61.6146 123.978 62.2347 123.744 63.0006 123.051C63.6727 121.803 63.7623 120.746 63.7724 119.344C63.7764 119.141 63.7803 118.939 63.7844 118.73C63.7962 118.087 63.8037 117.445 63.8111 116.802C63.8184 116.365 63.826 115.927 63.8338 115.49C63.8524 114.421 63.8671 113.353 63.8798 112.284C64.6051 112.284 65.3304 112.284 66.0776 112.284C66.0776 114.387 66.0776 116.49 66.0776 118.656C67.389 118.847 67.389 118.847 68.6799 118.898C68.9285 118.897 68.9285 118.897 69.1821 118.896C69.3861 118.894 69.5901 118.892 69.8003 118.89C70.4576 118.885 71.1149 118.881 71.7921 118.876C71.7921 116.628 71.7921 114.38 71.7921 112.064Z" fill="#C49D6F"></path>
<path d="M2.55908 132.28C7.6317 132.02 7.6317 132.02 9.21538 133.234C10.312 134.293 10.7224 135.069 10.7874 136.592C10.768 138.046 10.4034 138.944 9.3725 139.97C7.6348 141.475 5.32749 141.186 3.17246 141.111C2.77887 141.069 2.77887 141.069 2.55908 140.849C2.5396 140.216 2.53376 139.587 2.53762 138.953C2.53793 138.763 2.53824 138.573 2.53856 138.378C2.5398 137.769 2.54256 137.16 2.54535 136.551C2.54645 136.139 2.54745 135.727 2.54835 135.315C2.55078 134.303 2.55458 133.292 2.55908 132.28Z" fill="white"></path>
<path d="M82.5618 132.28C87.6778 132.018 87.6778 132.018 89.2026 133.194C90.0718 134.089 90.6185 134.847 90.8038 136.097C90.5512 137.928 90.2248 139.117 88.7665 140.327C87.4807 141.12 86.2644 141.131 84.8009 141.11C84.6095 141.11 84.4181 141.11 84.2209 141.11C82.8125 141.1 82.8125 141.1 82.5618 140.849C82.5423 140.215 82.5364 139.587 82.5403 138.953C82.5406 138.763 82.5409 138.573 82.5412 138.378C82.5425 137.769 82.5452 137.16 82.548 136.551C82.5491 136.139 82.5501 135.727 82.551 135.315C82.5535 134.303 82.5573 133.291 82.5618 132.28Z" fill="white"></path>
<path d="M49.3738 132.279C50.2533 132.261 51.1327 132.243 52.0388 132.224C52.3136 132.216 52.5885 132.208 52.8717 132.2C54.2642 132.186 55.1507 132.186 56.1873 133.158C56.7986 133.8 56.9414 134.24 56.9428 135.122C56.9196 135.908 56.8659 136.203 56.4483 136.894C55.9675 137.333 55.9675 137.333 55.3081 137.773C55.6844 138.558 56.1403 139.267 56.6217 139.991C56.8466 140.409 56.8466 140.409 56.8466 141.069C56.3555 141.142 56.3555 141.142 55.7477 141.069C55.2635 140.555 55.2635 140.555 54.8136 139.888C54.6629 139.668 54.5121 139.449 54.3568 139.223C53.9894 138.652 53.9894 138.652 53.7696 138.212C53.0497 138.109 53.0497 138.109 52.2173 138.075C51.7142 138.048 51.211 138.02 50.6926 137.992C50.6926 139.007 50.6926 140.023 50.6926 141.069C50.2574 141.069 49.8222 141.069 49.3738 141.069C49.3738 138.168 49.3738 135.268 49.3738 132.279Z" fill="#C49D6F"></path>
<path d="M123.442 112.064C127.772 111.922 127.772 111.922 129.349 113.259C130.2 114.284 130.309 114.935 130.298 116.277C130.297 116.551 130.296 116.826 130.295 117.108C130.291 117.456 130.287 117.804 130.283 118.162C130.274 119.267 130.265 120.373 130.256 121.513C127.427 121.513 124.598 121.513 121.684 121.513C121.684 120.715 121.684 119.917 121.684 119.096C123.787 119.096 125.891 119.096 128.058 119.096C128.035 118.493 128.012 117.89 127.989 117.269C127.984 117.08 127.978 116.891 127.972 116.696C127.965 116.546 127.958 116.396 127.95 116.242C127.945 116.089 127.939 115.935 127.933 115.778C127.81 115.238 127.609 115.042 127.179 114.701C126.416 114.447 125.741 114.409 124.939 114.358C124.66 114.339 124.38 114.321 124.092 114.302C123.878 114.288 123.663 114.275 123.442 114.261C123.442 113.536 123.442 112.811 123.442 112.064Z" fill="#C49D6F"></path>
<path d="M80.3639 112.284C81.1617 112.284 81.9595 112.284 82.7816 112.284C82.8034 113.617 82.8193 114.949 82.8298 116.282C82.8342 116.735 82.8402 117.187 82.8479 117.639C82.9378 123.095 82.9378 123.095 81.3667 125.029C79.6805 126.344 78.5045 126.372 76.4077 126.347C76.4077 125.55 76.4077 124.752 76.4077 123.93C77.0087 123.887 77.6097 123.844 78.2107 123.801C78.8204 123.711 79.1981 123.618 79.7045 123.271C80.1021 122.621 80.2017 122.121 80.2142 121.364C80.2185 121.162 80.2229 120.96 80.2274 120.751C80.2312 120.426 80.2312 120.426 80.2351 120.095C80.2394 119.872 80.2436 119.649 80.248 119.419C80.2611 118.707 80.2713 117.995 80.2815 117.283C80.2899 116.8 80.2984 116.317 80.3072 115.834C80.3283 114.651 80.3468 113.468 80.3639 112.284Z" fill="#C49D6F"></path>
<path d="M32.2303 132.279C33.9886 132.279 33.9886 132.279 34.3726 132.594C34.4485 132.74 34.5243 132.885 34.6025 133.035C34.7353 133.276 34.7353 133.276 34.8708 133.521C34.9559 133.692 35.0411 133.862 35.1288 134.037C35.3057 134.367 35.4828 134.696 35.6602 135.026C35.7453 135.189 35.8304 135.352 35.9181 135.52C36.3375 136.293 36.8085 137.033 37.2855 137.773C37.8188 137.283 38.1619 136.789 38.5149 136.159C38.6189 135.976 38.7229 135.792 38.83 135.604C38.9368 135.413 39.0436 135.222 39.1537 135.026C39.3656 134.648 39.5785 134.27 39.7924 133.893C39.886 133.726 39.9797 133.558 40.0762 133.386C40.5955 132.574 40.5955 132.574 41.0218 132.279C41.5296 132.279 42.0373 132.279 42.5604 132.279C42.5604 135.18 42.5604 138.08 42.5604 141.069C42.1977 141.069 41.8351 141.069 41.4614 141.069C41.0527 140.66 41.1887 139.981 41.1721 139.434C41.1629 139.147 41.1537 138.86 41.1442 138.564C41.1354 138.259 41.1267 137.954 41.118 137.649C41.1085 137.343 41.0989 137.037 41.0892 136.731C41.0658 135.98 41.0434 135.228 41.0218 134.477C40.9391 134.615 40.8563 134.752 40.771 134.895C39.248 137.432 39.248 137.432 37.725 139.97C37.3359 139.937 37.3359 139.937 36.8459 139.75C36.4434 139.221 36.4434 139.221 36.0389 138.527C35.9072 138.305 35.7755 138.082 35.6398 137.853C35.4757 137.568 35.3116 137.283 35.1425 136.99C34.3538 135.637 34.3538 135.637 33.5491 134.257C33.4765 136.505 33.404 138.753 33.3293 141.069C32.9666 141.069 32.604 141.069 32.2303 141.069C32.2303 138.168 32.2303 135.268 32.2303 132.279Z" fill="#C49D6F"></path>
<path d="M102.782 132.28C104.044 132.236 104.044 132.236 104.552 132.627C104.685 132.789 104.817 132.951 104.953 133.117C105.176 133.388 105.176 133.388 105.403 133.664C105.999 134.44 106.581 135.223 107.144 136.022C107.793 136.916 108.474 137.783 109.156 138.652C109.161 138.467 109.167 138.282 109.173 138.091C109.194 137.406 109.215 136.721 109.238 136.035C109.247 135.739 109.257 135.442 109.265 135.145C109.278 134.719 109.292 134.293 109.306 133.867C109.314 133.61 109.322 133.354 109.331 133.089C109.376 132.499 109.376 132.499 109.596 132.28C109.962 132.271 110.328 132.27 110.695 132.28C110.7 133.496 110.704 134.713 110.707 135.929C110.708 136.343 110.709 136.757 110.711 137.171C110.714 137.765 110.715 138.359 110.716 138.953C110.717 139.14 110.718 139.326 110.719 139.518C110.719 139.962 110.708 140.406 110.695 140.849C110.475 141.069 110.475 141.069 109.982 141.166C109.229 141.046 108.995 140.734 108.542 140.142C108.397 139.942 108.397 139.942 108.249 139.737C108.147 139.601 108.044 139.465 107.938 139.324C107.607 138.883 107.282 138.439 106.958 137.993C106.846 137.839 106.734 137.686 106.618 137.527C106.506 137.374 106.394 137.22 106.279 137.062C106.17 136.913 106.06 136.763 105.947 136.608C105.736 136.317 105.525 136.025 105.316 135.732C104.813 134.991 104.813 134.991 104.101 134.477C104.101 136.652 104.101 138.828 104.101 141.069C103.738 141.069 103.376 141.069 103.002 141.069C102.782 140.849 102.782 140.849 102.757 140.038C102.757 139.676 102.758 139.315 102.761 138.953C102.761 138.763 102.761 138.574 102.762 138.378C102.763 137.769 102.766 137.16 102.768 136.551C102.77 136.139 102.771 135.727 102.771 135.315C102.774 134.303 102.778 133.292 102.782 132.28Z" fill="#C49D6F"></path>
<path d="M2.55908 132.28C7.6317 132.02 7.6317 132.02 9.21538 133.234C10.312 134.293 10.7224 135.069 10.7874 136.592C10.768 138.046 10.4034 138.944 9.3725 139.97C7.6348 141.475 5.32749 141.186 3.17246 141.111C2.77887 141.069 2.77887 141.069 2.55908 140.849C2.5396 140.216 2.53376 139.587 2.53762 138.953C2.53793 138.763 2.53824 138.573 2.53856 138.378C2.5398 137.769 2.54256 137.16 2.54535 136.551C2.54645 136.139 2.54745 135.727 2.54835 135.315C2.55078 134.303 2.55458 133.292 2.55908 132.28ZM3.87781 133.378C3.87781 135.554 3.87781 137.729 3.87781 139.97C6.65732 140.133 6.65732 140.133 8.71314 138.872C9.51269 138.022 9.49665 137.06 9.4635 135.941C9.31607 134.994 8.99599 134.666 8.27356 134.038C6.74187 133.149 6.74187 133.149 3.87781 133.378Z" fill="#C49D6F"></path>
<path d="M82.5618 132.28C87.6778 132.018 87.6778 132.018 89.2026 133.194C90.0718 134.089 90.6185 134.847 90.8038 136.097C90.5512 137.928 90.2248 139.117 88.7665 140.327C87.4807 141.12 86.2644 141.131 84.8009 141.11C84.6095 141.11 84.4181 141.11 84.2209 141.11C82.8125 141.1 82.8125 141.1 82.5618 140.849C82.5423 140.215 82.5364 139.587 82.5403 138.953C82.5406 138.763 82.5409 138.573 82.5412 138.378C82.5425 137.769 82.5452 137.16 82.548 136.551C82.5491 136.139 82.5501 135.727 82.551 135.315C82.5535 134.303 82.5573 133.291 82.5618 132.28ZM83.8805 133.378C83.8805 135.554 83.8805 137.729 83.8805 139.97C86.6496 140.144 86.6496 140.144 88.7158 138.872C89.4121 137.936 89.5047 137.022 89.4653 135.884C89.31 134.974 88.9737 134.646 88.2762 134.037C86.7627 133.092 85.8708 133.378 83.8805 133.378Z" fill="#C49D6F"></path>
<path d="M13.5485 132.279C15.7969 132.279 18.0453 132.279 20.3619 132.279C20.3619 132.642 20.3619 133.004 20.3619 133.378C18.5486 133.378 16.7354 133.378 14.8672 133.378C14.8672 134.248 14.8672 135.118 14.8672 136.015C16.4628 136.015 18.0585 136.015 19.7025 136.015C19.775 136.377 19.8476 136.74 19.9223 137.113C18.2541 137.113 16.5859 137.113 14.8672 137.113C14.8672 138.056 14.8672 138.999 14.8672 139.97C16.6804 139.97 18.4937 139.97 20.3619 139.97C20.3619 140.333 20.3619 140.695 20.3619 141.069C18.1134 141.069 15.865 141.069 13.5485 141.069C13.5485 138.168 13.5485 135.268 13.5485 132.279Z" fill="#C49D6F"></path>
<path d="M59.4841 132.279C61.66 132.279 63.8359 132.279 66.0777 132.279C66.0777 132.642 66.0777 133.004 66.0777 133.378C64.337 133.378 62.5963 133.378 60.8028 133.378C60.8028 134.248 60.8028 135.118 60.8028 136.015C61.1125 136.012 61.4221 136.01 61.7412 136.007C62.1473 136.005 62.5534 136.003 62.9595 136.001C63.1636 135.999 63.3677 135.997 63.578 135.995C63.7742 135.995 63.9704 135.994 64.1726 135.993C64.4436 135.992 64.4436 135.992 64.7202 135.99C65.1985 136.015 65.1985 136.015 65.8579 136.235C65.8579 136.525 65.8579 136.815 65.8579 137.113C64.1897 137.113 62.5215 137.113 60.8028 137.113C60.8028 138.056 60.8028 138.999 60.8028 139.97C62.616 139.97 64.4293 139.97 66.2975 139.97C66.2975 140.333 66.2975 140.695 66.2975 141.069C65.3625 141.074 64.4275 141.078 63.4925 141.081C63.1742 141.082 62.8558 141.083 62.5375 141.085C62.0809 141.088 61.6243 141.089 61.1677 141.09C60.8926 141.091 60.6175 141.092 60.3341 141.094C59.7039 141.069 59.7039 141.069 59.4841 140.849C59.4646 140.215 59.4588 139.587 59.4626 138.953C59.4629 138.763 59.4632 138.573 59.4636 138.377C59.4648 137.768 59.4675 137.159 59.4703 136.55C59.4714 136.139 59.4724 135.727 59.4733 135.315C59.4756 134.303 59.4799 133.291 59.4841 132.279Z" fill="#C49D6F"></path>
<path d="M93.5511 132.279C95.7996 132.279 98.048 132.279 100.365 132.279C100.365 132.642 100.365 133.004 100.365 133.378C98.5513 133.378 96.7381 133.378 94.8699 133.378C94.8699 134.248 94.8699 135.118 94.8699 136.015C96.4655 136.015 98.0612 136.015 99.7052 136.015C99.7777 136.377 99.8503 136.74 99.925 137.113C98.1843 137.113 96.4436 137.113 94.6501 137.113C94.7226 137.984 94.7951 138.854 94.8699 139.75C96.6831 139.823 98.4964 139.895 100.365 139.97C100.365 140.333 100.365 140.695 100.365 141.069C98.1161 141.069 95.8677 141.069 93.5511 141.069C93.5511 138.168 93.5511 135.268 93.5511 132.279Z" fill="#C49D6F"></path>
<path d="M124.321 132.279C126.497 132.279 128.673 132.279 130.915 132.279C130.915 132.642 130.915 133.004 130.915 133.378C129.102 133.378 127.288 133.378 125.42 133.378C125.42 134.248 125.42 135.118 125.42 136.015C127.088 136.015 128.757 136.015 130.475 136.015C130.475 136.377 130.475 136.74 130.475 137.113C128.807 137.113 127.139 137.113 125.42 137.113C125.493 137.984 125.565 138.854 125.64 139.75C127.381 139.823 129.121 139.895 130.915 139.97C130.915 140.333 130.915 140.695 130.915 141.069C128.739 141.069 126.563 141.069 124.321 141.069C124.321 138.168 124.321 135.268 124.321 132.279Z" fill="#C49D6F"></path>
<path d="M22.9993 132.279C25.1752 132.279 27.3511 132.279 29.593 132.279C29.593 132.642 29.593 133.004 29.593 133.378C27.7797 133.378 25.9665 133.378 24.0983 133.378C24.0983 134.248 24.0983 135.118 24.0983 136.015C25.7665 136.015 27.4346 136.015 29.1534 136.015C29.1534 136.377 29.1534 136.74 29.1534 137.113C27.4852 137.113 25.817 137.113 24.0983 137.113C24.0983 138.056 24.0983 138.999 24.0983 139.97C25.9115 139.97 27.7248 139.97 29.593 139.97C29.593 140.333 29.593 140.695 29.593 141.069C27.4171 141.069 25.2412 141.069 22.9993 141.069C22.9993 138.168 22.9993 135.268 22.9993 132.279Z" fill="#C49D6F"></path>
<path d="M71.7372 132.225C71.889 132.223 72.0409 132.221 72.1973 132.22C73.2381 132.224 74.1006 132.393 75.0889 132.719C75.0889 133.082 75.0889 133.444 75.0889 133.818C73.3856 133.626 73.3856 133.626 72.8911 133.378C71.9224 133.264 71.1627 133.212 70.336 133.763C70.003 134.226 70.003 134.226 69.9926 134.711C70.5032 135.544 71.5539 135.72 72.442 136.001C74.935 136.79 74.935 136.79 75.5285 137.553C75.6504 138.513 75.6408 139.045 75.2675 139.929C74.5741 140.766 73.9923 141.043 72.9074 141.172C72.5861 141.18 72.2646 141.182 71.9432 141.179C71.7772 141.178 71.6112 141.178 71.4402 141.177C70.1022 141.138 69.285 140.894 68.2755 139.97C68.2755 139.753 68.2755 139.535 68.2755 139.311C69.038 139.412 69.7424 139.507 70.4734 139.751C70.9443 139.783 71.4163 139.799 71.8883 139.806C72.1373 139.811 72.3863 139.817 72.6429 139.823C73.3837 139.745 73.6735 139.592 74.2098 139.092C74.2211 138.559 74.2211 138.559 73.99 137.993C73.259 137.578 72.5613 137.365 71.7526 137.137C69.1676 136.402 69.1676 136.402 68.4953 135.356C68.3256 134.47 68.4528 134.114 68.8937 133.324C69.7505 132.247 70.4446 132.211 71.7372 132.225Z" fill="#C49D6F"></path>
<path d="M120.618 132.876C121.025 133.159 121.025 133.159 121.464 133.598C121.382 134.065 121.382 134.065 121.244 134.477C120.009 134.084 120.009 134.084 119.509 133.806C118.49 133.349 117.249 133.498 116.189 133.763C115.666 134.09 115.524 134.346 115.31 134.917C115.238 135.062 115.165 135.207 115.09 135.356C114.918 136.937 114.918 136.937 115.305 138.444C115.792 139.045 116.324 139.538 117.068 139.751C118.343 139.878 119.079 139.717 120.176 139.064C120.585 138.872 120.585 138.872 121.464 138.872C121.437 139.366 121.437 139.366 121.244 139.971C119.825 141.081 118.602 141.233 116.849 141.069C115.426 140.71 114.764 139.877 114.02 138.657C113.442 137.622 113.431 136.752 113.552 135.576C114.012 133.996 115.1 133.003 116.491 132.198C118.107 131.813 119.198 132.019 120.618 132.876Z" fill="#C49D6F"></path>
<path d="M97.9468 114.701C98.8742 115.058 99.4042 115.396 99.9249 116.24C100.126 117.337 100.039 118.216 99.5265 119.206C99.0393 119.763 98.6769 120.148 97.9279 120.269C97.0521 120.283 96.537 120.269 95.7627 119.824C94.9045 118.862 94.7713 117.971 94.7985 116.712C94.9064 115.997 95.2315 115.629 95.7489 115.141C96.5713 114.593 96.9715 114.619 97.9468 114.701Z" fill="white"></path>
<path d="M50.6925 133.378C51.297 133.366 51.9012 133.358 52.5058 133.351C52.6766 133.347 52.8474 133.343 53.0235 133.34C54.6405 133.326 54.6405 133.326 55.308 133.818C55.653 134.507 55.6052 135.035 55.5278 135.795C55.0877 136.4 54.7473 136.831 53.9882 136.981C53.4852 137.002 52.9947 136.99 52.492 136.963C52.3188 136.958 52.1455 136.953 51.967 136.948C51.542 136.935 51.1172 136.915 50.6925 136.894C50.6925 135.734 50.6925 134.574 50.6925 133.378Z" fill="white"></path>
<path d="M77.9462 132.279C78.3813 132.279 78.8165 132.279 79.2649 132.279C79.2649 135.325 79.2649 138.37 79.2649 141.508C78.8297 141.508 78.3945 141.508 77.9462 141.508C77.9462 138.463 77.9462 135.417 77.9462 132.279Z" fill="#C49D6F"></path>
<path d="M41.6813 132.499C41.8989 132.499 42.1164 132.499 42.3406 132.499C42.3406 135.254 42.3406 138.01 42.3406 140.849C42.0505 140.849 41.7604 140.849 41.4615 140.849C41.456 139.907 41.452 138.965 41.4494 138.023C41.4483 137.703 41.4468 137.383 41.4449 137.063C41.4422 136.601 41.441 136.139 41.44 135.677C41.4389 135.4 41.4377 135.123 41.4365 134.837C41.4613 134.042 41.5535 133.283 41.6813 132.499Z" fill="#C49D6F"></path>
<path d="M33.3293 107.669C33.8685 108.478 33.8557 108.912 33.7689 109.867C33.0092 110.373 32.6813 110.363 31.7908 110.306C31.6458 110.234 31.5007 110.161 31.3512 110.086C31.0266 108.538 31.0266 108.538 31.3512 107.889C32.0326 107.549 32.5827 107.588 33.3293 107.669Z" fill="#C49D6F"></path>
<path d="M32.4502 134.037C32.6678 134.037 32.8854 134.037 33.1096 134.037C33.3343 135.509 33.3552 136.945 33.3431 138.432C33.3421 138.665 33.3411 138.898 33.3401 139.138C33.3375 139.708 33.3339 140.279 33.3293 140.849C33.0392 140.849 32.7491 140.849 32.4502 140.849C32.4502 138.601 32.4502 136.353 32.4502 134.037Z" fill="#C49D6F"></path>
<path d="M57.9455 122.831C58.4675 123.202 58.4675 123.202 58.8247 123.71C58.8094 124.339 58.687 124.683 58.3439 125.207C57.7525 125.594 57.3158 125.556 56.6268 125.468C56.1185 124.705 56.0939 124.386 56.1872 123.49C56.6467 122.765 57.1205 122.69 57.9455 122.831Z" fill="#C49D6F"></path>
<path d="M114.843 122.992C114.997 122.993 115.151 122.994 115.31 122.996C115.464 122.994 115.618 122.993 115.777 122.992C116.189 123.051 116.189 123.051 116.629 123.49C116.527 124.91 116.527 124.91 115.969 125.468C115.287 125.54 114.836 125.579 114.239 125.22C113.88 124.623 113.919 124.172 113.991 123.49C114.431 123.051 114.431 123.051 114.843 122.992Z" fill="#C49D6F"></path>
<path d="M64.5193 107.839C65.8334 107.865 65.8334 107.865 66.0776 108.109C66.1376 109.37 66.1376 109.37 66.0776 109.867C65.638 110.307 65.638 110.307 64.8688 110.362C64.0995 110.307 64.0995 110.307 63.6599 109.867C63.605 109.098 63.605 109.098 63.6599 108.329C64.0995 107.89 64.0995 107.89 64.5193 107.839Z" fill="#C49D6F"></path>
<path d="M118.923 122.969C119.706 123.051 119.706 123.051 120.145 123.408C120.435 124.096 120.324 124.536 120.145 125.248C119.166 125.357 119.166 125.357 118.167 125.468C117.661 124.71 117.652 124.381 117.728 123.491C118.167 123.051 118.167 123.051 118.923 122.969Z" fill="#C49D6F"></path>
<path d="M74.6493 122.831C75.0477 123.079 75.0477 123.079 75.3087 123.491C75.402 124.387 75.3774 124.706 74.8691 125.468C74.2235 125.564 74.2235 125.564 73.5504 125.468C72.9738 124.969 72.8996 124.661 72.8086 123.903C72.8494 123.59 72.8494 123.59 72.891 123.271C73.6015 122.797 73.8254 122.728 74.6493 122.831Z" fill="#C49D6F"></path>
<path d="M69.3745 123.051C70.9874 122.971 70.9874 122.971 71.5861 123.298C71.9049 123.935 71.7712 124.361 71.5724 125.028C70.8619 125.502 70.6379 125.571 69.8141 125.468C69.4157 125.22 69.4157 125.22 69.1547 124.808C69.0992 124.128 69.0669 123.666 69.3745 123.051Z" fill="#C49D6F"></path>
<path d="M124.321 132.279C126.497 132.279 128.673 132.279 130.915 132.279C130.915 132.642 130.915 133.004 130.915 133.378C129.102 133.378 127.288 133.378 125.42 133.378C125.42 133.305 125.42 133.233 125.42 133.158C126.835 133.049 126.835 133.049 128.277 132.938C128.277 132.793 128.277 132.648 128.277 132.499C127.044 132.499 125.811 132.499 124.541 132.499C124.541 133.877 124.541 135.254 124.541 136.674C124.469 136.674 124.396 136.674 124.321 136.674C124.321 135.224 124.321 133.773 124.321 132.279Z" fill="#C49D6F"></path>
<path d="M53.6596 122.996C54.4289 123.051 54.4289 123.051 54.8685 123.49C54.9372 124.26 54.9372 124.26 54.8685 125.029C54.158 125.502 53.934 125.571 53.1102 125.468C52.7118 125.221 52.7118 125.221 52.4508 124.809C52.3821 124.136 52.3821 124.136 52.4508 123.49C52.8904 123.051 52.8904 123.051 53.6596 122.996Z" fill="#C49D6F"></path>
<path d="M125.64 136.015C127.236 136.015 128.831 136.015 130.475 136.015C130.475 136.377 130.475 136.74 130.475 137.113C128.9 137.175 127.41 136.939 125.86 136.674C125.787 136.456 125.715 136.239 125.64 136.015Z" fill="#C49D6F"></path>
<path d="M126.519 139.971C127.97 139.971 129.42 139.971 130.915 139.971C130.915 140.333 130.915 140.696 130.915 141.069C128.739 141.069 126.563 141.069 124.321 141.069C124.321 140.997 124.321 140.924 124.321 140.85C125.699 140.777 127.077 140.705 128.497 140.63C128.497 140.485 128.497 140.34 128.497 140.19C127.844 140.19 127.192 140.19 126.519 140.19C126.519 140.118 126.519 140.045 126.519 139.971Z" fill="#C49D6F"></path>
<path d="M14.8671 136.234C16.5353 136.234 18.2035 136.234 19.9222 136.234C19.9222 136.524 19.9222 136.814 19.9222 137.113C19.2491 137.119 18.5761 137.124 17.9029 137.127C17.618 137.13 17.618 137.13 17.3273 137.133C16.405 137.136 15.5464 137.13 14.6473 136.894C14.7199 136.676 14.7924 136.459 14.8671 136.234Z" fill="#C49D6F"></path>
<path d="M24.5378 136.234C25.0114 136.159 25.0114 136.159 25.5904 136.17C25.7972 136.172 26.004 136.174 26.2171 136.176C26.5418 136.185 26.5418 136.185 26.873 136.193C27.2003 136.198 27.2003 136.198 27.5341 136.202C28.074 136.21 28.6136 136.221 29.1533 136.234C29.1533 136.524 29.1533 136.814 29.1533 137.113C28.5993 137.119 28.0453 137.124 27.4912 137.127C27.2589 137.13 27.2589 137.13 27.022 137.133C26.0235 137.137 25.0833 137.058 24.0982 136.894C24.2433 136.676 24.3883 136.458 24.5378 136.234Z" fill="#C49D6F"></path>
<path d="M99.2656 136.234C99.193 136.452 99.1205 136.669 99.0458 136.894C97.535 137.057 96.1513 137.153 94.65 136.894C94.65 136.821 94.65 136.748 94.65 136.674C96.1998 136.188 97.6494 136.19 99.2656 136.234Z" fill="#C49D6F"></path>
<path d="M94.8698 121.073C95.0106 121.121 95.1514 121.168 95.2965 121.217C96.4465 121.588 97.3988 121.811 98.6062 121.732C98.6062 121.95 98.6062 122.168 98.6062 122.392C96.0739 122.513 96.0739 122.513 94.8698 121.732C94.8698 121.515 94.8698 121.297 94.8698 121.073Z" fill="#C49D6F"></path>
<path d="M94.8698 136.015C96.4655 136.015 98.0611 136.015 99.7051 136.015C99.7777 136.377 99.8502 136.74 99.9249 137.113C98.982 137.113 98.0391 137.113 97.0677 137.113C97.8227 136.61 98.1634 136.635 99.0458 136.674C99.1183 136.529 99.1908 136.384 99.2656 136.234C97.815 136.234 96.3644 136.234 94.8698 136.234C94.8698 136.162 94.8698 136.089 94.8698 136.015Z" fill="#C49D6F"></path>
<path d="M63.4814 136.207C63.761 136.211 64.0407 136.215 64.3288 136.219C64.6505 136.227 64.6505 136.227 64.9787 136.234C64.9787 136.379 64.9787 136.524 64.9787 136.674C64.1799 137.185 63.4905 137.149 62.561 137.113C62.561 136.968 62.561 136.823 62.561 136.674C62.1259 136.674 61.6907 136.674 61.2423 136.674C62.0636 136.126 62.5049 136.189 63.4814 136.207Z" fill="#C49D6F"></path>
<path d="M121.684 119.096C123.352 119.096 125.02 119.096 126.739 119.096C126.739 119.168 126.739 119.241 126.739 119.315C125.288 119.388 123.838 119.46 122.343 119.535C122.271 120.043 122.198 120.55 122.123 121.073C122.414 121.146 122.704 121.218 123.003 121.293C122.567 121.293 122.132 121.293 121.684 121.293C121.684 120.568 121.684 119.843 121.684 119.096Z" fill="#C49D6F"></path>
<path d="M62.7809 132.499C63.8688 132.499 64.9568 132.499 66.0777 132.499C66.0777 132.717 66.0777 132.934 66.0777 133.158C64.9897 133.158 63.9018 133.158 62.7809 133.158C62.7809 132.941 62.7809 132.723 62.7809 132.499Z" fill="#C49D6F"></path>
<path d="M57.9455 122.831C57.873 123.049 57.8005 123.266 57.7258 123.49C57.5807 123.558 57.4356 123.626 57.2862 123.696C56.8013 123.89 56.8013 123.89 56.6818 124.397C56.6636 124.533 56.6455 124.669 56.6268 124.809C56.7719 124.809 56.9169 124.809 57.0664 124.809C57.0664 124.954 57.0664 125.099 57.0664 125.248C57.3565 125.321 57.6466 125.393 57.9455 125.468C57.3137 125.509 57.3137 125.509 56.6268 125.468C56.1185 124.706 56.0939 124.386 56.1872 123.49C56.6551 122.752 57.1125 122.764 57.9455 122.831Z" fill="#C49D6F"></path>
<path d="M60.8027 136.015C61.5216 136.009 62.2405 136.005 62.9594 136.001C63.1635 136 63.3677 135.998 63.578 135.996C63.7742 135.995 63.9704 135.994 64.1725 135.994C64.4436 135.992 64.4436 135.992 64.7201 135.99C65.1985 136.015 65.1985 136.015 65.8578 136.235C65.8578 136.525 65.8578 136.815 65.8578 137.114C65.2776 137.114 64.6974 137.114 64.0995 137.114C64.3897 136.969 64.6798 136.824 64.9787 136.674C64.9787 136.529 64.9787 136.384 64.9787 136.235C63.6006 136.235 62.2226 136.235 60.8027 136.235C60.8027 136.162 60.8027 136.09 60.8027 136.015Z" fill="#C49D6F"></path>
<path d="M118.167 123.49C118.602 123.49 119.038 123.49 119.486 123.49C119.8 124.008 119.945 124.255 119.843 124.864C119.775 125.054 119.775 125.054 119.706 125.248C118.996 125.126 118.602 124.955 118.167 124.369C118.167 124.079 118.167 123.789 118.167 123.49Z" fill="#C49D6F"></path>
<path d="M69.3745 123.051C70.9873 122.971 70.9873 122.971 71.5861 123.298C71.901 123.927 71.7589 124.368 71.5723 125.028C71.3547 125.137 71.3547 125.137 71.1328 125.248C71.0602 124.595 70.9877 123.943 70.913 123.27C70.4053 123.343 69.8975 123.415 69.3745 123.49C69.3745 123.345 69.3745 123.2 69.3745 123.051Z" fill="#C49D6F"></path>
<path d="M27.1752 132.499C27.9005 132.499 28.6258 132.499 29.3731 132.499C29.3731 132.789 29.3731 133.079 29.3731 133.378C28.6478 133.305 27.9225 133.233 27.1752 133.158C27.1752 132.941 27.1752 132.723 27.1752 132.499Z" fill="#C49D6F"></path>
<path d="M17.9442 120.194C18.265 120.208 18.5855 120.227 18.9058 120.249C19.1735 120.265 19.1735 120.265 19.4467 120.28C19.9223 120.414 19.9223 120.414 20.2056 120.864C20.283 121.076 20.283 121.076 20.3619 121.293C20.167 121.216 19.972 121.139 19.7712 121.06C19.0119 120.845 18.686 120.859 17.9442 121.073C17.7765 121.114 17.6088 121.155 17.436 121.197C17.3136 121.229 17.1912 121.26 17.0651 121.293C17.1376 121.075 17.2101 120.858 17.2849 120.634C17.5024 120.634 17.72 120.634 17.9442 120.634C17.9442 120.489 17.9442 120.344 17.9442 120.194Z" fill="#C49D6F"></path>
<path d="M59.7038 124.149C59.9214 124.222 60.139 124.294 60.3632 124.369C60.3632 124.877 60.3632 125.384 60.3632 125.907C60.9434 125.98 61.5236 126.052 62.1215 126.127C62.1215 126.2 62.1215 126.272 62.1215 126.347C61.3236 126.347 60.5258 126.347 59.7038 126.347C59.7038 125.622 59.7038 124.897 59.7038 124.149Z" fill="#C49D6F"></path>
<path d="M3.21844 125.029C3.82286 124.974 3.82286 124.974 4.53717 125.029C5.05917 125.468 5.05917 125.468 5.41632 125.907C5.05917 126.059 5.05917 126.059 4.53717 126.127C3.82286 125.811 3.82286 125.811 3.21844 125.468C3.21844 125.323 3.21844 125.178 3.21844 125.029Z" fill="#C49D6F"></path>
<path d="M14.8672 136.234C16.3178 136.234 17.7684 136.234 19.2629 136.234C19.1904 136.452 19.1179 136.669 19.0431 136.894C18.6805 136.894 18.3179 136.894 17.9442 136.894C17.9442 136.821 17.9442 136.749 17.9442 136.674C16.4211 136.565 16.4211 136.565 14.8672 136.454C14.8672 136.382 14.8672 136.309 14.8672 136.234Z" fill="#C49D6F"></path>
<path d="M52.4508 123.49C52.5959 123.49 52.7409 123.49 52.8904 123.49C52.8904 123.853 52.8904 124.215 52.8904 124.589C53.0355 124.589 53.1805 124.589 53.33 124.589C53.33 124.734 53.33 124.879 53.33 125.028C53.6201 125.173 53.9102 125.318 54.2091 125.468C53.6067 125.517 53.2333 125.544 52.7118 125.221C52.3429 124.638 52.4059 124.164 52.4508 123.49Z" fill="#C49D6F"></path>
<path d="M38.1647 112.284C39.2526 112.284 40.3406 112.284 41.4615 112.284C41.4615 112.357 41.4615 112.429 41.4615 112.504C40.1559 112.613 40.1559 112.613 38.824 112.724C38.679 113.159 38.5339 113.594 38.3845 114.042C38.3119 114.042 38.2394 114.042 38.1647 114.042C38.1647 113.462 38.1647 112.882 38.1647 112.284Z" fill="#C49D6F"></path>
<path d="M97.0677 114.481C98.6304 114.322 98.6304 114.322 99.1874 114.775C99.4854 115.14 99.4854 115.14 99.9249 115.799C99.7073 115.908 99.7073 115.908 99.4854 116.019C99.3403 115.802 99.1952 115.584 99.0458 115.36C98.5669 115.138 98.5669 115.138 98.0293 114.989C97.8496 114.934 97.67 114.879 97.4849 114.822C97.3472 114.782 97.2096 114.742 97.0677 114.701C97.0677 114.628 97.0677 114.556 97.0677 114.481Z" fill="white"></path>
<path d="M81.0232 124.369C81.1683 124.369 81.3133 124.369 81.4628 124.369C81.4216 124.767 81.4216 124.767 81.243 125.248C80.3246 125.907 80.3246 125.907 79.7045 125.907C79.7045 125.762 79.7045 125.617 79.7045 125.468C80.4653 124.809 80.4653 124.809 81.0232 124.809C81.0232 124.664 81.0232 124.519 81.0232 124.369Z" fill="#C49D6F"></path>
<path d="M97.9468 114.701C97.6567 114.773 97.3666 114.846 97.0677 114.92C97.0677 115.065 97.0677 115.21 97.0677 115.36C96.6325 115.505 96.1973 115.65 95.749 115.799C95.749 115.582 95.749 115.364 95.749 115.14C96.5499 114.606 97.0045 114.665 97.9468 114.701Z" fill="white"></path>
<path d="M69.3744 132.719C69.5195 132.791 69.6646 132.864 69.814 132.938C69.6735 133.133 69.533 133.328 69.3882 133.529C68.977 134.189 68.8043 134.598 68.7151 135.356C68.6426 135.356 68.57 135.356 68.4953 135.356C68.3845 134.192 68.6735 133.639 69.3744 132.719Z" fill="#C49D6F"></path>
<path d="M70.913 132.279C71.4932 132.279 72.0734 132.279 72.6713 132.279C72.5987 132.497 72.5262 132.714 72.4515 132.938C72.0163 132.938 71.5811 132.938 71.1328 132.938C71.0602 132.721 70.9877 132.503 70.913 132.279Z" fill="#C49D6F"></path>
<path d="M69.1547 123.49C69.5943 124.149 69.5943 124.149 69.7866 124.726C69.9796 125.289 69.9796 125.289 70.5009 125.427C70.6369 125.44 70.7729 125.454 70.913 125.468C70.3106 125.517 69.9372 125.544 69.4157 125.221C69.0468 124.638 69.1097 124.164 69.1547 123.49Z" fill="#C49D6F"></path>
<path d="M101.161 120.387C101.334 120.396 101.506 120.405 101.683 120.414C101.05 120.942 100.46 121.397 99.7052 121.733C100.315 120.427 100.315 120.427 101.161 120.387Z" fill="#C49D6F"></path>
<path d="M91.1335 119.096C91.3511 119.168 91.5687 119.241 91.7928 119.315C90.7763 120.387 90.7763 120.387 90.0345 120.634C90.3092 119.831 90.4018 119.583 91.1335 119.096Z" fill="#C49D6F"></path>
<path d="M8.93286 136.674C9.07792 136.746 9.22298 136.819 9.37244 136.894C9.29991 137.256 9.22738 137.619 9.15265 137.992C8.93506 137.992 8.71747 137.992 8.49329 137.992C8.6856 136.921 8.6856 136.921 8.93286 136.674Z" fill="white"></path>
<path d="M19.2629 136.234C19.4805 136.234 19.6981 136.234 19.9223 136.234C19.9223 136.524 19.9223 136.814 19.9223 137.113C19.2695 137.113 18.6168 137.113 17.9442 137.113C17.9442 137.041 17.9442 136.968 17.9442 136.894C18.121 136.866 18.2978 136.839 18.4799 136.811C18.6658 136.766 18.8517 136.721 19.0432 136.674C19.1157 136.529 19.1882 136.384 19.2629 136.234Z" fill="#C49D6F"></path>
<path d="M14.4276 120.414C14.5001 120.559 14.5727 120.704 14.6474 120.854C14.865 120.926 15.0826 120.999 15.3068 121.073C15.3793 121.218 15.4518 121.363 15.5265 121.513C15.032 121.568 15.032 121.568 14.4276 121.513C13.9194 121.073 13.9194 121.073 13.5485 120.634C13.8386 120.561 14.1287 120.489 14.4276 120.414Z" fill="#C49D6F"></path>
<path d="M76.6274 124.149C77.2077 124.149 77.7879 124.149 78.3857 124.149C77.8445 124.691 77.3513 124.808 76.6274 125.028C76.6274 124.738 76.6274 124.448 76.6274 124.149Z" fill="#C49D6F"></path>
<path d="M94.8698 121.073C95.3094 121.293 95.749 121.513 96.1885 121.732C96.1885 121.877 96.1885 122.022 96.1885 122.172C95.6665 122.103 95.6665 122.103 95.0896 121.952C94.9445 121.735 94.7995 121.517 94.65 121.293C94.7226 121.22 94.7951 121.148 94.8698 121.073Z" fill="#C49D6F"></path>
<path d="M129.157 113.163C129.706 113.641 129.912 113.983 130.036 114.701C129.746 114.629 129.456 114.556 129.157 114.481C129.157 114.046 129.157 113.611 129.157 113.163Z" fill="#C49D6F"></path>
</svg>
