<svg width="39" height="39" viewBox="0 0 39 39" fill="none" xmlns="http://www.w3.org/2000/svg">
<circle cx="19.5333" cy="19.1" r="18.6" stroke="white"/>
<path fill-rule="evenodd" clip-rule="evenodd" d="M23.7511 21.726C23.5124 21.8852 23.3532 21.8852 23.1941 21.9648C23.0349 21.9648 22.9553 22.0443 22.8757 22.1239C22.7166 22.1239 22.7166 22.2831 22.7166 22.3627C22.7166 22.4423 22.7166 22.5218 22.637 22.6014C22.5574 22.681 22.3982 22.681 22.2391 22.681C22.0003 22.681 21.682 22.681 21.3636 22.8402C21.2045 22.9198 21.0453 22.9993 20.8861 23.0789C20.5678 23.3177 20.2495 23.4768 19.6128 23.4768C18.9761 23.4768 18.6578 23.2381 18.3395 23.0789C18.1803 22.9993 18.0211 22.8402 17.862 22.8402C17.5436 22.7606 17.2253 22.681 16.9866 22.681C16.8274 22.681 16.6682 22.681 16.5886 22.6014C16.3499 22.5218 16.3499 22.4423 16.3499 22.3627C16.3499 22.2831 16.3499 22.1239 16.1907 22.1239C16.1111 22.0443 15.952 22.0443 15.8724 21.9648C15.7132 21.8852 15.5541 21.8852 15.3153 21.726C15.0766 21.5668 15.2357 21.4873 15.3153 21.4077C16.8274 20.6914 17.0661 19.4977 17.0661 19.4181C17.0661 19.3385 17.0661 19.2589 16.9866 19.1793C16.907 19.0998 16.6682 18.9406 16.4295 18.861C16.3499 18.7814 16.2703 18.7814 16.1907 18.7018C15.952 18.5427 15.8724 18.3835 15.952 18.2243C16.0316 18.0652 16.1111 18.0652 16.2703 18.0652C16.3499 18.0652 16.3499 18.0652 16.4295 18.0652C16.5886 18.0652 16.7478 18.1448 16.8274 18.2243C16.907 18.2243 16.9866 18.3039 17.0661 18.3039C17.0661 18.3039 17.0661 18.3039 17.1457 18.3039C17.2253 18.3039 17.2253 18.3039 17.2253 18.1448V18.0652C17.2253 17.8264 17.1457 17.2693 17.2253 16.8714C17.3049 16.2348 17.4641 15.8368 17.7824 15.5981C17.9416 15.4389 18.4986 14.8818 19.6128 14.8818C20.727 14.8818 21.2841 15.5185 21.4432 15.5981C21.682 15.9164 21.9207 16.2348 22.0003 16.8714C22.0799 17.3489 22.0003 17.8264 22.0003 18.1448C22.0003 18.2243 22.0003 18.3039 22.0799 18.3039C22.0799 18.3039 22.0799 18.3039 22.1595 18.3039C22.2391 18.3039 22.3186 18.2243 22.3982 18.2243C22.5574 18.1448 22.637 18.1448 22.7961 18.0652C22.7961 18.0652 22.8757 18.0652 22.9553 18.0652C23.1145 18.0652 23.1941 18.1448 23.2736 18.2243C23.3532 18.3835 23.2736 18.5427 23.0349 18.7018C22.9553 18.7018 22.8757 18.7814 22.7961 18.861C22.637 19.0202 22.3186 19.1793 22.2391 19.1793C22.1595 19.2589 22.1595 19.3385 22.1595 19.4181C22.1595 19.4977 22.3982 20.6118 23.9103 21.4077C23.9103 21.4873 24.0695 21.5668 23.7511 21.726Z" stroke="white" stroke-width="1.5" stroke-miterlimit="10" stroke-linejoin="round"/>
<path d="M19.5333 27.0583C23.9285 27.0583 27.4916 23.4952 27.4916 19.0999C27.4916 14.7047 23.9285 11.1416 19.5333 11.1416C15.138 11.1416 11.575 14.7047 11.575 19.0999C11.575 23.4952 15.138 27.0583 19.5333 27.0583Z" stroke="white" stroke-width="1.5" stroke-miterlimit="10" stroke-linejoin="round"/>
</svg>
