<svg width="39" height="39" viewBox="0 0 39 39" fill="none" xmlns="http://www.w3.org/2000/svg">
<circle cx="19.4667" cy="19.1" r="18.6" stroke="white"/>
<g clip-path="url(#clip0_1_398)">
<path d="M24.2212 15.975L23.8291 17.9407C23.701 18.588 23.0846 19.0949 22.426 19.0949H21.0985V28.1527C21.0985 28.8665 20.5597 29.4459 19.8486 29.4459H17.9143C17.2032 29.4459 16.6246 28.8652 16.6246 28.152V19.0949H15.9801C15.269 19.0949 14.6904 18.5149 14.6904 17.801V15.8605C14.6904 15.1473 15.269 14.5667 15.9801 14.5667H16.6246V12.6359C16.6246 10.5104 18.3391 8.78075 20.454 8.76264C20.4675 8.762 20.479 8.75488 20.4931 8.75488H23.0725C23.428 8.75488 23.6613 9.04392 23.6613 9.40085V12.6339C23.6613 12.9915 23.428 13.2831 23.0725 13.2831H21.1376L21.137 14.5667H23.0712C23.4338 14.5667 23.7682 14.7212 23.9874 14.9902C24.2071 15.2585 24.2923 15.6181 24.2212 15.975ZM20.5168 15.8605C20.5078 15.8612 20.5008 15.8657 20.4918 15.8657C20.1356 15.8651 19.8466 15.5754 19.8473 15.2184V15.2139L19.8486 12.6359C19.8486 12.2783 20.1369 11.9892 20.4931 11.9892H22.4273V10.0488H20.5181C20.5072 10.0488 20.4982 10.0546 20.4867 10.0546C19.0682 10.0546 17.9143 11.2127 17.9143 12.6359V15.2236C17.9143 15.5812 17.6254 15.8709 17.2692 15.8709C17.2519 15.8709 17.2371 15.8618 17.2198 15.8605H15.9801V17.801H17.2692C17.6254 17.801 17.9143 18.0907 17.9143 18.4483C17.9143 18.4819 17.9002 18.5104 17.8951 18.5427V28.1527L19.8486 28.152V18.4547C19.8486 18.4522 19.8473 18.4502 19.8473 18.4483C19.8473 18.0907 20.1356 17.801 20.4918 17.801H22.426C22.4728 17.801 22.5561 17.7331 22.5644 17.6879L22.929 15.8605H20.5168Z" fill="white"/>
</g>
<defs>
<clipPath id="clip0_1_398">
<rect width="9.55" height="20.6917" fill="white" transform="translate(14.6917 8.75439)"/>
</clipPath>
</defs>
</svg>
