<svg width="39" height="39" viewBox="0 0 39 39" fill="none" xmlns="http://www.w3.org/2000/svg">
<circle cx="19.4" cy="19.1" r="18.6" stroke="white"/>
<path d="M23.3791 25.4662H15.4208C13.0333 25.4662 11.4417 23.8746 11.4417 21.4871V16.7121C11.4417 14.3246 13.0333 12.7329 15.4208 12.7329H23.3791C25.7666 12.7329 27.3583 14.3246 27.3583 16.7121V21.4871C27.3583 23.8746 25.7666 25.4662 23.3791 25.4662Z" stroke="white" stroke-width="1.5" stroke-miterlimit="10" stroke-linecap="round" stroke-linejoin="round"/>
<path d="M18.9225 17.1101L20.9121 18.3039C21.6283 18.7814 21.6283 19.4976 20.9121 19.9751L18.9225 21.1689C18.1267 21.6464 17.49 21.2485 17.49 20.3731V17.9856C17.49 16.951 18.1267 16.6326 18.9225 17.1101Z" stroke="white" stroke-width="1.5" stroke-miterlimit="10" stroke-linecap="round" stroke-linejoin="round"/>
</svg>
